<?xml version="1.0" encoding="UTF-8" ?>
<!DOCTYPE svg PUBLIC "-//W3C//DTD SVG 1.1//EN" "http://www.w3.org/Graphics/SVG/1.1/DTD/svg11.dtd">
<svg width="1500pt" height="1919pt" viewBox="0 0 1500 1919" version="1.1" xmlns="http://www.w3.org/2000/svg">
<g id="#ffffffff">
<path fill="#ffffff" stroke="#ffffff" stroke-width="0.09375" opacity="1.00" d=" M 621.28 266.48 C 626.07 266.53 629.34 272.01 627.23 276.28 C 625.29 281.38 616.49 281.42 615.00 275.97 C 612.91 271.70 616.53 266.28 621.28 266.48 Z" />
<path fill="#ffffff" stroke="#ffffff" stroke-width="0.09375" opacity="1.00" d=" M 729.28 266.50 C 733.82 266.61 737.39 271.91 735.12 276.04 C 733.46 281.04 725.51 281.53 723.20 276.83 C 720.28 272.47 724.10 266.18 729.28 266.50 Z" />
<path fill="#ffffff" stroke="#ffffff" stroke-width="0.09375" opacity="1.00" d=" M 782.32 266.53 C 785.52 266.48 789.13 268.57 789.54 272.00 C 790.02 274.96 788.75 278.55 785.70 279.55 C 782.10 281.26 776.98 279.11 776.35 274.99 C 775.31 271.08 778.33 266.90 782.32 266.53 Z" />
<path fill="#ffffff" stroke="#ffffff" stroke-width="0.09375" opacity="1.00" d=" M 945.35 266.50 C 950.08 266.89 953.32 272.55 950.68 276.67 C 948.17 282.16 937.76 280.53 938.26 274.04 C 937.44 269.86 941.31 266.29 945.35 266.50 Z" />
<path fill="#ffffff" stroke="#ffffff" stroke-width="0.09375" opacity="1.00" d=" M 672.31 267.31 C 676.85 264.81 682.49 269.07 681.69 274.06 C 681.69 279.40 674.19 282.12 670.62 278.31 C 667.01 275.44 667.65 268.71 672.31 267.31 Z" />
<path fill="#ffffff" stroke="#ffffff" stroke-width="0.09375" opacity="1.00" d=" M 833.44 267.49 C 837.80 264.95 844.66 268.54 843.62 273.91 C 843.37 279.26 836.26 282.04 832.39 278.45 C 829.02 275.59 829.76 269.70 833.44 267.49 Z" />
<path fill="#ffffff" stroke="#ffffff" stroke-width="0.09375" opacity="1.00" d=" M 887.37 267.56 C 890.78 265.51 895.87 266.99 897.06 270.96 C 899.30 275.79 894.24 281.77 889.05 279.96 C 883.47 278.77 882.29 270.15 887.37 267.56 Z" />
<path fill="#ffffff" stroke="#ffffff" stroke-width="0.09375" opacity="1.00" d=" M 594.27 293.50 C 598.45 293.57 601.77 297.84 600.66 301.93 C 599.84 308.37 588.71 308.81 587.66 302.20 C 586.01 297.81 589.94 293.59 594.27 293.50 Z" />
<path fill="#ffffff" stroke="#ffffff" stroke-width="0.09375" opacity="1.00" d=" M 701.42 293.49 C 705.91 293.29 710.29 297.80 708.44 302.38 C 707.14 308.23 697.71 308.56 695.82 303.02 C 693.88 298.89 696.94 293.90 701.42 293.49 Z" />
<path fill="#ffffff" stroke="#ffffff" stroke-width="0.09375" opacity="1.00" d=" M 810.22 293.47 C 814.44 293.82 817.80 298.09 816.38 302.28 C 815.26 308.47 804.78 308.56 803.54 302.41 C 801.88 298.01 805.63 293.28 810.22 293.47 Z" />
<path fill="#ffffff" stroke="#ffffff" stroke-width="0.09375" opacity="1.00" d=" M 917.32 293.52 C 922.06 293.29 926.18 298.46 924.03 302.96 C 922.15 308.73 912.09 308.12 911.35 301.98 C 910.25 297.96 913.13 293.79 917.32 293.52 Z" />
<path fill="#ffffff" stroke="#ffffff" stroke-width="0.09375" opacity="1.00" d=" M 536.48 294.57 C 540.58 291.87 547.05 294.82 546.87 299.95 C 547.45 305.37 540.47 309.03 536.20 305.81 C 532.34 303.25 532.61 297.00 536.48 294.57 Z" />
<path fill="#ffffff" stroke="#ffffff" stroke-width="0.09375" opacity="1.00" d=" M 644.35 294.59 C 647.53 292.81 652.27 293.58 653.98 297.03 C 656.50 301.10 653.18 307.71 648.02 306.84 C 641.53 307.62 638.77 297.64 644.35 294.59 Z" />
<path fill="#ffffff" stroke="#ffffff" stroke-width="0.09375" opacity="1.00" d=" M 752.34 294.52 C 756.52 291.89 762.81 294.85 762.72 299.96 C 763.10 305.03 757.24 308.75 752.79 306.26 C 748.30 304.14 747.96 296.89 752.34 294.52 Z" />
<path fill="#ffffff" stroke="#ffffff" stroke-width="0.09375" opacity="1.00" d=" M 860.32 294.53 C 864.35 291.95 870.81 294.98 870.55 300.02 C 871.07 304.42 866.15 308.34 862.00 306.79 C 856.39 305.80 855.40 297.09 860.32 294.53 Z" />
<path fill="#ffffff" stroke="#ffffff" stroke-width="0.09375" opacity="1.00" d=" M 968.35 294.46 C 971.46 292.61 976.15 293.70 977.70 297.11 C 979.55 300.24 978.11 304.37 975.17 306.26 C 972.70 307.41 969.57 307.35 967.42 305.57 C 964.00 302.81 964.39 296.56 968.35 294.46 Z" />
<path fill="#ffffff" stroke="#ffffff" stroke-width="0.09375" opacity="1.00" d=" M 1022.39 294.46 C 1027.57 290.93 1034.62 297.59 1031.92 302.98 C 1030.16 308.22 1021.72 308.29 1019.58 303.33 C 1018.57 300.16 1018.91 295.91 1022.39 294.46 Z" />
<path fill="#ffffff" stroke="#ffffff" stroke-width="0.09375" opacity="1.00" d=" M 566.28 320.49 C 569.60 320.25 573.35 322.45 573.79 325.98 C 573.98 328.32 573.66 331.07 571.58 332.55 C 568.25 334.99 562.62 334.18 561.01 330.04 C 558.85 326.05 561.95 321.04 566.28 320.49 Z" />
<path fill="#ffffff" stroke="#ffffff" stroke-width="0.09375" opacity="1.00" d=" M 620.45 320.46 C 625.71 319.85 629.91 326.38 626.87 330.84 C 624.51 335.28 616.44 334.99 614.92 329.99 C 613.05 325.86 616.00 320.97 620.45 320.46 Z" />
<path fill="#ffffff" stroke="#ffffff" stroke-width="0.09375" opacity="1.00" d=" M 674.39 320.44 C 678.43 320.07 682.47 323.84 681.69 328.02 C 681.97 334.43 671.87 336.17 669.28 330.69 C 666.51 326.70 669.63 320.81 674.39 320.44 Z" />
<path fill="#ffffff" stroke="#ffffff" stroke-width="0.09375" opacity="1.00" d=" M 728.30 320.48 C 733.17 319.83 737.59 325.57 735.10 330.03 C 733.22 335.21 724.58 335.30 722.85 330.02 C 720.78 325.97 723.89 320.91 728.30 320.48 Z" />
<path fill="#ffffff" stroke="#ffffff" stroke-width="0.09375" opacity="1.00" d=" M 782.34 320.51 C 787.58 319.77 791.64 326.39 788.71 330.75 C 785.98 336.07 776.26 334.30 776.27 328.07 C 775.51 324.26 778.76 321.03 782.34 320.51 Z" />
<path fill="#ffffff" stroke="#ffffff" stroke-width="0.09375" opacity="1.00" d=" M 836.42 320.46 C 841.50 319.88 845.82 326.33 842.70 330.63 C 840.26 335.80 831.23 334.75 830.32 329.00 C 829.17 324.96 832.37 320.85 836.42 320.46 Z" />
<path fill="#ffffff" stroke="#ffffff" stroke-width="0.09375" opacity="1.00" d=" M 890.25 320.45 C 893.01 320.56 896.46 321.87 897.11 324.91 C 898.11 327.24 897.36 329.97 895.92 331.94 C 892.64 335.56 885.14 334.18 884.32 329.02 C 883.18 325.08 886.21 320.83 890.25 320.45 Z" />
<path fill="#ffffff" stroke="#ffffff" stroke-width="0.09375" opacity="1.00" d=" M 944.33 320.44 C 949.08 320.12 953.22 325.47 951.03 329.91 C 949.12 335.63 939.09 335.11 938.33 328.95 C 937.25 324.96 940.25 320.79 944.33 320.44 Z" />
<path fill="#ffffff" stroke="#ffffff" stroke-width="0.09375" opacity="1.00" d=" M 998.44 320.48 C 1003.01 320.25 1007.06 325.63 1004.96 329.90 C 1003.31 334.53 996.37 335.31 993.39 331.62 C 991.80 329.81 992.02 327.20 992.31 324.99 C 993.10 322.35 995.88 320.90 998.44 320.48 Z" />
<path fill="#ffffff" stroke="#ffffff" stroke-width="0.09375" opacity="1.00" d=" M 1052.43 320.45 C 1057.45 320.08 1061.44 326.41 1058.53 330.66 C 1055.84 335.98 1045.88 334.54 1046.17 328.04 C 1045.27 324.13 1048.61 320.61 1052.43 320.45 Z" />
<path fill="#ffffff" stroke="#ffffff" stroke-width="0.09375" opacity="1.00" d=" M 1106.34 320.45 C 1108.78 320.65 1111.75 321.69 1112.62 324.25 C 1114.16 327.29 1113.11 331.40 1110.16 333.18 C 1106.71 334.83 1101.63 333.81 1100.32 329.82 C 1098.38 325.67 1101.97 320.72 1106.34 320.45 Z" />
<path fill="#ffffff" stroke="#ffffff" stroke-width="0.09375" opacity="1.00" d=" M 594.25 347.48 C 599.44 347.30 602.55 353.76 599.88 357.97 C 597.33 362.30 589.82 361.76 587.99 357.03 C 585.78 352.79 589.41 347.12 594.25 347.48 Z" />
<path fill="#ffffff" stroke="#ffffff" stroke-width="0.09375" opacity="1.00" d=" M 648.26 347.47 C 652.96 347.41 656.40 352.76 654.17 357.00 C 652.51 362.28 643.44 362.27 641.87 356.95 C 639.77 352.59 643.40 347.13 648.26 347.47 Z" />
<path fill="#ffffff" stroke="#ffffff" stroke-width="0.09375" opacity="1.00" d=" M 701.29 347.50 C 705.70 346.94 709.78 351.30 708.60 355.67 C 708.06 361.21 699.68 362.75 696.72 358.36 C 693.34 354.55 696.16 347.71 701.29 347.50 Z" />
<path fill="#ffffff" stroke="#ffffff" stroke-width="0.09375" opacity="1.00" d=" M 809.42 347.48 C 813.84 347.03 817.62 351.35 816.52 355.69 C 815.71 361.76 805.88 362.96 803.88 357.10 C 801.57 353.06 804.88 347.64 809.42 347.48 Z" />
<path fill="#ffffff" stroke="#ffffff" stroke-width="0.09375" opacity="1.00" d=" M 864.27 347.49 C 869.17 347.53 872.42 353.69 869.66 357.72 C 867.14 362.68 858.22 361.71 857.34 356.01 C 855.89 351.63 859.80 347.06 864.27 347.49 Z" />
<path fill="#ffffff" stroke="#ffffff" stroke-width="0.09375" opacity="1.00" d=" M 917.42 347.48 C 922.00 346.92 925.34 351.88 924.39 356.05 C 923.20 360.31 917.63 362.55 913.97 359.87 C 908.83 356.75 911.17 347.41 917.42 347.48 Z" />
<path fill="#ffffff" stroke="#ffffff" stroke-width="0.09375" opacity="1.00" d=" M 1025.46 347.43 C 1029.37 347.36 1033.08 350.99 1032.42 355.02 C 1032.14 361.01 1022.98 363.14 1020.04 357.99 C 1017.35 353.75 1020.25 347.49 1025.46 347.43 Z" />
<path fill="#ffffff" stroke="#ffffff" stroke-width="0.09375" opacity="1.00" d=" M 1079.43 347.45 C 1083.71 347.18 1087.53 351.88 1086.10 356.02 C 1085.20 361.54 1076.76 362.59 1073.98 358.07 C 1071.43 353.75 1074.13 347.53 1079.43 347.45 Z" />
<path fill="#ffffff" stroke="#ffffff" stroke-width="0.09375" opacity="1.00" d=" M 1132.31 347.50 C 1137.09 346.64 1141.59 351.34 1140.02 356.07 C 1139.07 361.22 1131.50 362.53 1128.42 358.58 C 1125.37 354.84 1127.34 348.30 1132.31 347.50 Z" />
<path fill="#ffffff" stroke="#ffffff" stroke-width="0.09375" opacity="1.00" d=" M 752.34 348.52 C 756.98 345.35 763.36 349.52 762.67 354.97 C 762.30 360.06 756.15 362.45 752.04 359.90 C 748.35 357.18 748.21 350.91 752.34 348.52 Z" />
<path fill="#ffffff" stroke="#ffffff" stroke-width="0.09375" opacity="1.00" d=" M 968.31 348.37 C 973.55 344.85 980.67 351.44 977.95 356.90 C 976.39 361.32 970.16 362.11 966.93 359.14 C 964.06 356.11 964.65 350.52 968.31 348.37 Z" />
<path fill="#ffffff" stroke="#ffffff" stroke-width="0.09375" opacity="1.00" d=" M 620.48 374.48 C 625.54 373.80 629.53 379.66 627.22 384.19 C 625.31 388.92 617.57 389.26 615.29 384.69 C 612.74 380.73 615.70 374.72 620.48 374.48 Z" />
<path fill="#ffffff" stroke="#ffffff" stroke-width="0.09375" opacity="1.00" d=" M 674.28 374.48 C 680.24 373.54 684.51 381.89 679.87 385.89 C 677.89 388.54 674.22 387.93 671.42 387.35 C 666.35 384.08 667.84 374.82 674.28 374.48 Z" />
<path fill="#ffffff" stroke="#ffffff" stroke-width="0.09375" opacity="1.00" d=" M 728.37 374.47 C 733.30 373.80 737.51 379.54 735.13 383.99 C 733.37 388.59 726.40 389.34 723.67 385.31 C 720.29 381.47 723.18 374.58 728.37 374.47 Z" />
<path fill="#ffffff" stroke="#ffffff" stroke-width="0.09375" opacity="1.00" d=" M 782.38 374.48 C 787.62 373.97 791.77 380.25 788.66 384.73 C 786.07 389.85 777.62 388.43 776.36 383.01 C 775.25 379.04 778.26 374.73 782.38 374.48 Z" />
<path fill="#ffffff" stroke="#ffffff" stroke-width="0.09375" opacity="1.00" d=" M 837.35 374.49 C 842.48 374.60 845.76 381.31 842.19 385.19 C 839.22 390.30 830.40 387.70 830.21 381.96 C 829.60 377.82 833.25 374.22 837.35 374.49 Z" />
<path fill="#ffffff" stroke="#ffffff" stroke-width="0.09375" opacity="1.00" d=" M 890.38 374.42 C 895.74 373.91 899.87 380.97 896.26 385.20 C 893.37 389.87 885.45 388.09 884.21 382.96 C 883.31 379.00 886.26 374.69 890.38 374.42 Z" />
<path fill="#ffffff" stroke="#ffffff" stroke-width="0.09375" opacity="1.00" d=" M 999.23 374.47 C 1001.78 374.71 1004.29 376.39 1005.04 378.93 C 1007.09 383.32 1002.63 388.86 997.86 387.85 C 992.90 387.80 990.68 381.74 992.76 377.77 C 994.14 375.61 996.70 374.43 999.23 374.47 Z" />
<path fill="#ffffff" stroke="#ffffff" stroke-width="0.09375" opacity="1.00" d=" M 1052.42 374.46 C 1057.42 374.06 1061.50 380.40 1058.48 384.62 C 1056.01 389.28 1047.97 388.94 1046.39 383.72 C 1044.60 379.54 1047.89 374.52 1052.42 374.46 Z" />
<path fill="#ffffff" stroke="#ffffff" stroke-width="0.09375" opacity="1.00" d=" M 1106.38 374.40 C 1111.68 374.07 1115.54 380.84 1112.06 385.06 C 1110.68 388.08 1107.01 388.15 1104.20 387.61 C 1099.83 386.05 1098.49 379.99 1101.46 376.54 C 1102.81 375.36 1104.59 374.66 1106.38 374.40 Z" />
<path fill="#ffffff" stroke="#ffffff" stroke-width="0.09375" opacity="1.00" d=" M 1160.33 374.47 C 1166.07 373.84 1169.60 381.56 1165.67 385.64 C 1162.71 389.32 1155.87 388.39 1154.37 383.80 C 1152.23 379.71 1155.81 374.37 1160.33 374.47 Z" />
<path fill="#ffffff" stroke="#ffffff" stroke-width="0.09375" opacity="1.00" d=" M 1214.42 374.45 C 1218.63 374.18 1222.63 378.78 1220.89 382.90 C 1220.07 388.13 1212.50 389.68 1209.36 385.62 C 1205.46 381.64 1208.83 374.22 1214.42 374.45 Z" />
<path fill="#ffffff" stroke="#ffffff" stroke-width="0.09375" opacity="1.00" d=" M 942.14 375.09 C 947.00 372.47 953.24 378.07 951.21 383.15 C 950.11 387.44 944.61 389.15 941.01 386.92 C 936.74 384.33 937.17 376.72 942.14 375.09 Z" />
<path fill="#ffffff" stroke="#ffffff" stroke-width="0.09375" opacity="1.00" d=" M 647.42 401.44 C 653.04 400.43 657.15 408.14 653.37 412.31 C 650.64 416.21 643.54 415.58 641.92 410.94 C 639.89 406.94 642.94 401.65 647.42 401.44 Z" />
<path fill="#ffffff" stroke="#ffffff" stroke-width="0.09375" opacity="1.00" d=" M 701.36 401.45 C 706.73 400.55 710.68 407.25 707.77 411.69 C 705.06 417.15 695.49 415.07 695.38 408.95 C 694.63 405.19 697.75 401.85 701.36 401.45 Z" />
<path fill="#ffffff" stroke="#ffffff" stroke-width="0.09375" opacity="1.00" d=" M 755.39 401.47 C 759.50 400.95 763.37 404.82 762.59 408.98 C 762.35 414.37 754.72 416.87 751.16 412.87 C 747.17 409.11 749.79 401.65 755.39 401.47 Z" />
<path fill="#ffffff" stroke="#ffffff" stroke-width="0.09375" opacity="1.00" d=" M 916.42 401.46 C 920.30 400.85 924.73 403.88 924.57 408.05 C 924.97 413.21 918.30 416.77 914.12 413.85 C 909.06 411.04 910.82 402.46 916.42 401.46 Z" />
<path fill="#ffffff" stroke="#ffffff" stroke-width="0.09375" opacity="1.00" d=" M 970.37 401.50 C 974.17 400.77 978.31 403.43 978.50 407.47 C 979.44 412.80 972.60 416.90 968.19 413.89 C 963.12 411.20 964.65 402.42 970.37 401.50 Z" />
<path fill="#ffffff" stroke="#ffffff" stroke-width="0.09375" opacity="1.00" d=" M 1024.35 401.44 C 1026.87 401.05 1029.30 402.27 1031.12 403.94 C 1033.43 407.06 1032.66 412.33 1028.99 414.09 C 1025.16 416.25 1019.08 413.78 1019.15 409.01 C 1018.38 405.49 1021.14 402.37 1024.35 401.44 Z" />
<path fill="#ffffff" stroke="#ffffff" stroke-width="0.09375" opacity="1.00" d=" M 1132.39 401.50 C 1137.41 400.44 1142.20 406.14 1139.74 410.84 C 1138.13 415.45 1131.40 416.12 1128.35 412.65 C 1125.32 408.89 1127.13 401.96 1132.39 401.50 Z" />
<path fill="#ffffff" stroke="#ffffff" stroke-width="0.09375" opacity="1.00" d=" M 1186.34 401.50 C 1190.90 400.57 1195.72 405.47 1193.93 410.03 C 1193.01 415.74 1183.70 416.64 1181.60 411.32 C 1179.21 407.51 1182.06 402.20 1186.34 401.50 Z" />
<path fill="#ffffff" stroke="#ffffff" stroke-width="0.09375" opacity="1.00" d=" M 1240.39 401.45 C 1244.92 400.66 1249.63 405.55 1247.97 410.09 C 1246.89 414.78 1240.28 416.42 1236.87 413.16 C 1232.67 409.72 1234.95 402.07 1240.39 401.45 Z" />
<path fill="#ffffff" stroke="#ffffff" stroke-width="0.09375" opacity="1.00" d=" M 806.39 402.40 C 810.48 399.58 816.97 403.03 816.66 408.10 C 817.05 413.34 810.32 416.75 806.15 413.82 C 802.07 411.42 802.28 404.68 806.39 402.40 Z" />
<path fill="#ffffff" stroke="#ffffff" stroke-width="0.09375" opacity="1.00" d=" M 860.35 402.47 C 864.32 399.39 870.78 403.05 870.61 407.95 C 871.16 413.22 864.40 416.86 860.17 413.84 C 856.05 411.51 856.08 404.63 860.35 402.47 Z" />
<path fill="#ffffff" stroke="#ffffff" stroke-width="0.09375" opacity="1.00" d=" M 1076.38 402.33 C 1079.95 399.92 1085.99 402.51 1086.16 407.01 C 1087.68 411.63 1082.49 415.95 1078.09 414.67 C 1072.24 414.09 1071.19 404.66 1076.38 402.33 Z" />
<path fill="#ffffff" stroke="#ffffff" stroke-width="0.09375" opacity="1.00" d=" M 835.33 428.51 C 839.72 427.28 844.35 431.47 843.58 435.96 C 843.35 441.67 834.82 444.04 831.66 439.36 C 828.37 435.76 830.65 429.48 835.33 428.51 Z" />
<path fill="#ffffff" stroke="#ffffff" stroke-width="0.09375" opacity="1.00" d=" M 943.34 428.46 C 948.15 427.32 953.02 432.45 951.20 437.15 C 949.93 442.11 942.63 443.42 939.48 439.55 C 936.54 435.80 938.51 429.40 943.34 428.46 Z" />
<path fill="#ffffff" stroke="#ffffff" stroke-width="0.09375" opacity="1.00" d=" M 1159.38 428.44 C 1164.41 427.30 1169.11 433.18 1166.70 437.78 C 1164.99 443.21 1155.93 443.15 1154.33 437.70 C 1152.59 433.86 1155.29 429.15 1159.38 428.44 Z" />
<path fill="#ffffff" stroke="#ffffff" stroke-width="0.09375" opacity="1.00" d=" M 723.82 430.80 C 727.10 426.35 735.17 428.44 735.64 434.05 C 736.44 437.90 733.26 440.58 730.48 442.54 C 728.23 441.76 725.97 441.02 723.71 440.29 C 722.42 437.32 721.26 433.47 723.82 430.80 Z" />
<path fill="#ffffff" stroke="#ffffff" stroke-width="0.09375" opacity="1.00" d=" M 779.32 429.34 C 783.24 426.70 789.34 429.56 789.63 434.37 C 790.42 439.01 785.50 442.93 781.07 441.60 C 775.44 440.56 774.58 432.13 779.32 429.34 Z" />
<path fill="#ffffff" stroke="#ffffff" stroke-width="0.09375" opacity="1.00" d=" M 887.31 429.35 C 892.68 425.59 899.86 432.32 897.01 437.95 C 895.09 442.78 887.88 442.94 885.07 438.95 C 883.30 435.78 883.86 431.15 887.31 429.35 Z" />
<path fill="#ffffff" stroke="#ffffff" stroke-width="0.09375" opacity="1.00" d=" M 995.28 429.34 C 1000.30 425.85 1007.18 431.52 1005.21 437.11 C 1003.84 442.87 995.15 443.29 992.56 438.32 C 991.49 435.12 991.92 430.98 995.28 429.34 Z" />
<path fill="#ffffff" stroke="#ffffff" stroke-width="0.09375" opacity="1.00" d=" M 1049.32 429.25 C 1052.84 427.09 1057.86 429.11 1059.06 433.06 C 1060.97 437.43 1056.57 442.62 1051.96 441.76 C 1045.54 441.91 1043.86 431.95 1049.32 429.25 Z" />
<path fill="#ffffff" stroke="#ffffff" stroke-width="0.09375" opacity="1.00" d=" M 1103.27 429.29 C 1108.11 426.06 1115.23 431.46 1113.00 436.98 C 1111.97 442.03 1104.52 443.54 1101.43 439.57 C 1099.05 436.56 1099.37 430.92 1103.27 429.29 Z" />
<path fill="#ffffff" stroke="#ffffff" stroke-width="0.09375" opacity="1.00" d=" M 1211.23 429.22 C 1214.66 427.07 1219.79 429.15 1220.85 433.07 C 1222.05 436.19 1220.19 439.76 1217.42 441.36 C 1214.70 441.98 1211.14 442.24 1209.41 439.58 C 1206.50 436.49 1207.59 431.22 1211.23 429.22 Z" />
<path fill="#ffffff" stroke="#ffffff" stroke-width="0.09375" opacity="1.00" d=" M 1264.45 429.57 C 1269.33 425.77 1276.88 431.23 1274.89 437.03 C 1273.76 442.47 1264.80 443.65 1262.60 438.40 C 1260.73 435.46 1261.81 431.63 1264.45 429.57 Z" />
<path fill="#ffffff" stroke="#ffffff" stroke-width="0.09375" opacity="1.00" d=" M 808.41 455.47 C 812.41 454.44 816.91 457.76 816.64 461.99 C 817.18 467.75 808.87 471.29 805.17 466.80 C 801.26 463.41 803.46 456.43 808.41 455.47 Z" />
<path fill="#ffffff" stroke="#ffffff" stroke-width="0.09375" opacity="1.00" d=" M 862.43 455.48 C 867.69 454.12 872.58 460.15 869.98 464.98 C 868.17 469.08 862.23 470.04 859.13 466.86 C 855.28 463.54 857.33 456.22 862.43 455.48 Z" />
<path fill="#ffffff" stroke="#ffffff" stroke-width="0.09375" opacity="1.00" d=" M 916.39 455.48 C 921.88 454.03 926.93 461.01 923.55 465.69 C 920.99 470.60 912.03 469.40 911.37 463.72 C 910.36 460.12 912.74 456.22 916.39 455.48 Z" />
<path fill="#ffffff" stroke="#ffffff" stroke-width="0.09375" opacity="1.00" d=" M 970.35 455.47 C 975.89 453.85 980.83 460.96 977.52 465.61 C 975.30 469.84 968.72 469.71 966.10 465.99 C 963.68 462.20 965.63 456.25 970.35 455.47 Z" />
<path fill="#ffffff" stroke="#ffffff" stroke-width="0.09375" opacity="1.00" d=" M 1024.45 455.48 C 1029.62 454.23 1034.33 460.36 1031.80 465.04 C 1029.60 470.79 1019.14 469.61 1019.22 463.08 C 1018.33 459.52 1020.95 456.09 1024.45 455.48 Z" />
<path fill="#ffffff" stroke="#ffffff" stroke-width="0.09375" opacity="1.00" d=" M 1078.30 455.50 C 1083.62 454.07 1088.23 460.11 1085.81 464.94 C 1083.88 469.61 1076.77 470.00 1073.97 465.99 C 1071.84 462.16 1073.32 455.99 1078.30 455.50 Z" />
<path fill="#ffffff" stroke="#ffffff" stroke-width="0.09375" opacity="1.00" d=" M 1132.33 455.45 C 1137.50 454.10 1141.97 460.06 1139.71 464.73 C 1138.11 470.17 1128.96 470.16 1127.40 464.70 C 1125.68 460.92 1128.09 455.98 1132.33 455.45 Z" />
<path fill="#ffffff" stroke="#ffffff" stroke-width="0.09375" opacity="1.00" d=" M 1186.36 455.45 C 1189.26 454.91 1192.47 456.45 1193.59 459.26 C 1196.09 463.89 1191.29 470.44 1185.98 468.63 C 1178.96 467.63 1179.30 456.17 1186.36 455.45 Z" />
<path fill="#ffffff" stroke="#ffffff" stroke-width="0.09375" opacity="1.00" d=" M 1240.32 455.41 C 1244.92 454.46 1249.61 459.56 1247.95 464.09 C 1246.80 469.97 1237.05 470.57 1235.34 464.75 C 1233.36 460.86 1236.13 456.07 1240.32 455.41 Z" />
<path fill="#ffffff" stroke="#ffffff" stroke-width="0.09375" opacity="1.00" d=" M 1294.41 455.44 C 1297.51 454.91 1301.05 456.74 1301.69 459.97 C 1301.92 462.17 1302.19 464.84 1300.52 466.57 C 1297.39 470.42 1290.09 469.07 1288.97 464.08 C 1287.43 460.29 1290.36 455.76 1294.41 455.44 Z" />
<path fill="#ffffff" stroke="#ffffff" stroke-width="0.09375" opacity="1.00" d=" M 889.33 482.48 C 894.32 480.94 898.88 486.37 897.22 491.07 C 896.16 495.79 889.23 497.57 886.11 493.82 C 881.98 490.53 884.49 483.46 889.33 482.48 Z" />
<path fill="#ffffff" stroke="#ffffff" stroke-width="0.09375" opacity="1.00" d=" M 943.31 482.44 C 947.78 481.43 952.66 485.67 951.41 490.30 C 950.71 495.08 944.37 497.65 940.72 494.35 C 936.18 491.29 937.89 483.38 943.31 482.44 Z" />
<path fill="#ffffff" stroke="#ffffff" stroke-width="0.09375" opacity="1.00" d=" M 997.26 482.40 C 1001.43 481.42 1005.65 484.78 1005.58 489.07 C 1005.76 494.41 998.70 497.93 994.62 494.36 C 990.03 491.29 991.91 483.38 997.26 482.40 Z" />
<path fill="#ffffff" stroke="#ffffff" stroke-width="0.09375" opacity="1.00" d=" M 1050.46 482.53 C 1055.35 480.84 1061.11 485.95 1059.10 490.98 C 1058.06 495.51 1051.87 497.27 1048.39 494.43 C 1044.47 491.35 1045.43 483.95 1050.46 482.53 Z" />
<path fill="#ffffff" stroke="#ffffff" stroke-width="0.09375" opacity="1.00" d=" M 1105.32 482.43 C 1110.19 481.20 1114.51 486.36 1113.08 490.99 C 1111.98 496.94 1102.13 497.53 1100.40 491.71 C 1098.58 487.79 1101.09 483.12 1105.32 482.43 Z" />
<path fill="#ffffff" stroke="#ffffff" stroke-width="0.09375" opacity="1.00" d=" M 1158.42 482.50 C 1163.48 480.81 1168.67 486.10 1167.04 491.08 C 1165.85 495.66 1159.22 497.46 1155.93 494.07 C 1152.27 490.88 1153.60 483.76 1158.42 482.50 Z" />
<path fill="#ffffff" stroke="#ffffff" stroke-width="0.09375" opacity="1.00" d=" M 1266.40 482.48 C 1271.33 480.95 1276.78 485.99 1274.88 491.00 C 1273.79 495.67 1267.26 497.36 1263.87 494.11 C 1259.93 490.95 1261.51 483.71 1266.40 482.48 Z" />
<path fill="#ffffff" stroke="#ffffff" stroke-width="0.09375" opacity="1.00" d=" M 1321.37 482.40 C 1323.82 481.90 1326.33 483.17 1327.95 484.96 C 1329.88 488.50 1329.03 494.22 1324.68 495.48 C 1320.18 497.21 1314.41 492.88 1315.75 487.99 C 1316.19 485.07 1318.41 482.76 1321.37 482.40 Z" />
<path fill="#ffffff" stroke="#ffffff" stroke-width="0.09375" opacity="1.00" d=" M 833.30 483.26 C 837.22 480.79 843.06 483.34 843.59 488.03 C 844.65 493.06 838.50 497.70 833.98 495.12 C 829.18 493.15 828.95 485.84 833.30 483.26 Z" />
<path fill="#ffffff" stroke="#ffffff" stroke-width="0.09375" opacity="1.00" d=" M 1211.18 483.20 C 1216.02 480.03 1223.03 485.55 1220.88 490.97 C 1219.99 495.76 1213.26 497.39 1209.94 494.14 C 1206.52 491.38 1207.10 485.05 1211.18 483.20 Z" />
<path fill="#ffffff" stroke="#ffffff" stroke-width="0.09375" opacity="1.00" d=" M 861.35 509.55 C 866.06 507.86 871.54 511.81 870.54 516.95 C 870.22 522.65 861.96 524.90 858.73 520.34 C 855.65 516.98 857.32 511.29 861.35 509.55 Z" />
<path fill="#ffffff" stroke="#ffffff" stroke-width="0.09375" opacity="1.00" d=" M 916.31 509.41 C 921.56 507.97 926.46 514.12 923.91 518.91 C 921.94 524.17 912.88 523.89 911.54 518.36 C 910.25 514.66 912.26 510.11 916.31 509.41 Z" />
<path fill="#ffffff" stroke="#ffffff" stroke-width="0.09375" opacity="1.00" d=" M 970.35 509.41 C 975.62 507.87 980.43 514.22 977.89 518.95 C 976.21 523.12 970.27 523.96 967.15 520.94 C 963.30 517.56 965.07 510.20 970.35 509.41 Z" />
<path fill="#ffffff" stroke="#ffffff" stroke-width="0.09375" opacity="1.00" d=" M 1131.42 509.56 C 1136.51 507.50 1141.70 513.05 1140.07 517.98 C 1138.91 523.46 1130.06 524.45 1127.69 519.42 C 1125.56 515.86 1127.45 510.79 1131.42 509.56 Z" />
<path fill="#ffffff" stroke="#ffffff" stroke-width="0.09375" opacity="1.00" d=" M 1186.27 509.40 C 1191.55 507.90 1196.14 514.26 1193.69 518.95 C 1191.73 523.92 1184.16 523.86 1181.62 519.44 C 1179.11 515.63 1181.86 510.08 1186.27 509.40 Z" />
<path fill="#ffffff" stroke="#ffffff" stroke-width="0.09375" opacity="1.00" d=" M 1348.27 509.37 C 1351.99 508.70 1356.40 511.93 1355.89 515.95 C 1356.40 520.11 1351.93 523.47 1348.03 522.58 C 1343.74 522.13 1341.40 516.71 1343.25 513.04 C 1344.08 511.04 1346.13 509.63 1348.27 509.37 Z" />
<path fill="#ffffff" stroke="#ffffff" stroke-width="0.09375" opacity="1.00" d=" M 1022.29 510.23 C 1026.47 507.53 1032.74 510.94 1032.48 516.02 C 1032.80 521.20 1026.43 524.48 1022.23 521.76 C 1017.98 519.56 1017.92 512.32 1022.29 510.23 Z" />
<path fill="#ffffff" stroke="#ffffff" stroke-width="0.09375" opacity="1.00" d=" M 1076.29 510.26 C 1081.25 506.93 1088.33 512.39 1086.09 518.04 C 1084.87 523.68 1076.26 524.17 1073.67 519.37 C 1072.52 516.18 1072.88 511.89 1076.29 510.26 Z" />
<path fill="#ffffff" stroke="#ffffff" stroke-width="0.09375" opacity="1.00" d=" M 1237.38 510.51 C 1241.14 507.75 1247.80 510.04 1248.09 515.01 C 1248.86 519.12 1245.32 523.32 1241.01 522.62 C 1234.80 523.00 1232.58 513.79 1237.38 510.51 Z" />
<path fill="#ffffff" stroke="#ffffff" stroke-width="0.09375" opacity="1.00" d=" M 1292.16 510.16 C 1296.56 507.45 1303.38 511.73 1301.97 517.04 C 1301.68 522.62 1292.99 524.75 1290.02 520.06 C 1287.66 516.95 1288.44 511.81 1292.16 510.16 Z" />
<path fill="#ffffff" stroke="#ffffff" stroke-width="0.09375" opacity="1.00" d=" M 889.27 536.40 C 894.17 534.93 899.11 540.33 897.14 545.05 C 896.08 550.44 887.89 551.28 885.27 546.72 C 882.45 543.04 885.03 537.50 889.27 536.40 Z" />
<path fill="#ffffff" stroke="#ffffff" stroke-width="0.09375" opacity="1.00" d=" M 943.35 536.37 C 947.55 535.27 952.31 539.23 951.52 543.60 C 951.13 546.80 948.43 549.89 945.02 549.65 C 941.44 549.91 937.75 546.79 938.18 543.04 C 937.68 539.77 940.40 537.12 943.35 536.37 Z" />
<path fill="#ffffff" stroke="#ffffff" stroke-width="0.09375" opacity="1.00" d=" M 997.27 536.36 C 1002.44 534.98 1007.55 541.22 1004.75 545.96 C 1002.70 551.41 993.40 550.62 992.27 544.94 C 991.07 541.19 993.54 537.25 997.27 536.36 Z" />
<path fill="#ffffff" stroke="#ffffff" stroke-width="0.09375" opacity="1.00" d=" M 1051.34 536.42 C 1056.16 535.05 1061.02 540.55 1059.15 545.17 C 1057.74 549.67 1051.25 551.24 1047.88 548.05 C 1044.52 544.43 1045.90 537.06 1051.34 536.42 Z" />
<path fill="#ffffff" stroke="#ffffff" stroke-width="0.09375" opacity="1.00" d=" M 1104.41 536.51 C 1109.37 534.81 1115.03 539.83 1112.95 544.97 C 1111.90 550.36 1103.84 551.40 1101.00 546.99 C 1098.74 543.28 1100.25 538.09 1104.41 536.51 Z" />
<path fill="#ffffff" stroke="#ffffff" stroke-width="0.09375" opacity="1.00" d=" M 1158.33 536.50 C 1163.46 534.57 1168.65 540.01 1167.07 545.03 C 1165.79 550.07 1157.81 551.49 1155.05 546.98 C 1152.55 543.50 1154.02 537.70 1158.33 536.50 Z" />
<path fill="#ffffff" stroke="#ffffff" stroke-width="0.09375" opacity="1.00" d=" M 1212.35 536.50 C 1215.79 535.44 1220.01 537.26 1220.94 540.88 C 1222.62 545.65 1217.93 550.97 1212.94 549.52 C 1206.44 548.72 1205.99 537.94 1212.35 536.50 Z" />
<path fill="#ffffff" stroke="#ffffff" stroke-width="0.09375" opacity="1.00" d=" M 1266.28 536.49 C 1268.39 536.09 1270.74 536.26 1272.49 537.67 C 1276.35 540.11 1275.90 546.83 1271.80 548.79 C 1268.54 550.75 1263.55 549.58 1262.32 545.74 C 1260.39 542.33 1262.66 537.58 1266.28 536.49 Z" />
<path fill="#ffffff" stroke="#ffffff" stroke-width="0.09375" opacity="1.00" d=" M 1320.43 536.47 C 1323.36 535.69 1326.89 536.99 1328.34 539.74 C 1328.98 541.85 1329.02 544.21 1328.35 546.33 C 1326.03 550.59 1318.97 550.94 1316.55 546.59 C 1314.22 542.99 1316.43 537.66 1320.43 536.47 Z" />
<path fill="#ffffff" stroke="#ffffff" stroke-width="0.09375" opacity="1.00" d=" M 1374.36 536.47 C 1378.49 535.12 1383.26 538.62 1382.90 543.02 C 1383.41 548.31 1376.36 551.69 1372.34 548.52 C 1367.94 545.68 1369.07 537.61 1374.36 536.47 Z" />
<path fill="#ffffff" stroke="#ffffff" stroke-width="0.09375" opacity="1.00" d=" M 916.29 563.43 C 920.68 562.18 925.45 566.47 924.52 570.97 C 923.85 575.22 918.82 578.04 914.91 576.08 C 909.47 573.79 910.09 564.21 916.29 563.43 Z" />
<path fill="#ffffff" stroke="#ffffff" stroke-width="0.09375" opacity="1.00" d=" M 970.27 563.38 C 975.56 561.80 980.54 568.19 977.85 572.93 C 976.17 577.01 970.20 577.95 967.17 574.88 C 963.21 571.61 965.14 564.19 970.27 563.38 Z" />
<path fill="#ffffff" stroke="#ffffff" stroke-width="0.09375" opacity="1.00" d=" M 1023.37 563.50 C 1028.85 561.48 1034.57 567.79 1031.80 572.98 C 1029.83 577.54 1022.95 577.79 1020.13 574.02 C 1018.01 570.52 1019.03 564.74 1023.37 563.50 Z" />
<path fill="#ffffff" stroke="#ffffff" stroke-width="0.09375" opacity="1.00" d=" M 1078.37 563.36 C 1083.27 562.11 1087.88 567.34 1086.02 572.06 C 1084.83 577.87 1075.31 578.25 1073.48 572.67 C 1071.53 568.87 1074.17 563.97 1078.37 563.36 Z" />
<path fill="#ffffff" stroke="#ffffff" stroke-width="0.09375" opacity="1.00" d=" M 1131.39 563.52 C 1136.38 561.63 1141.88 566.85 1139.97 571.88 C 1139.10 576.59 1133.01 577.93 1129.42 575.47 C 1125.24 572.33 1126.30 565.08 1131.39 563.52 Z" />
<path fill="#ffffff" stroke="#ffffff" stroke-width="0.09375" opacity="1.00" d=" M 1186.19 563.37 C 1191.36 561.83 1195.97 568.14 1193.61 572.73 C 1191.86 578.35 1182.26 577.76 1181.17 571.99 C 1179.82 568.30 1182.37 564.08 1186.19 563.37 Z" />
<path fill="#ffffff" stroke="#ffffff" stroke-width="0.09375" opacity="1.00" d=" M 1239.39 563.47 C 1244.34 561.86 1249.95 566.96 1247.90 572.03 C 1246.43 577.02 1238.89 578.43 1236.02 573.99 C 1233.23 570.49 1235.13 564.70 1239.39 563.47 Z" />
<path fill="#ffffff" stroke="#ffffff" stroke-width="0.09375" opacity="1.00" d=" M 1293.37 563.47 C 1296.27 562.82 1299.96 563.70 1301.32 566.60 C 1302.08 568.74 1301.97 571.16 1301.37 573.34 C 1298.97 578.21 1290.14 577.60 1288.96 572.08 C 1287.66 568.71 1289.99 564.50 1293.37 563.47 Z" />
<path fill="#ffffff" stroke="#ffffff" stroke-width="0.09375" opacity="1.00" d=" M 1348.31 563.32 C 1353.04 562.33 1357.68 567.52 1355.75 572.11 C 1354.61 577.74 1345.03 578.34 1343.34 572.74 C 1341.17 568.90 1343.94 563.72 1348.31 563.32 Z" />
<path fill="#ffffff" stroke="#ffffff" stroke-width="0.09375" opacity="1.00" d=" M 886.28 590.90 C 889.02 590.50 892.25 589.45 894.68 591.37 C 897.41 593.18 898.40 597.06 896.86 599.95 C 895.72 602.57 892.69 603.34 890.46 604.73 C 889.06 600.12 887.77 595.48 886.28 590.90 Z" />
<path fill="#ffffff" stroke="#ffffff" stroke-width="0.09375" opacity="1.00" d=" M 943.22 590.43 C 947.55 589.13 952.14 593.07 951.54 597.55 C 951.36 602.65 944.63 605.49 940.76 602.33 C 936.44 599.27 937.57 591.19 943.22 590.43 Z" />
<path fill="#ffffff" stroke="#ffffff" stroke-width="0.09375" opacity="1.00" d=" M 999.23 590.29 C 1005.10 590.13 1007.78 598.72 1003.07 602.10 C 999.24 605.90 991.57 602.47 992.10 597.03 C 991.43 592.90 995.63 590.39 999.23 590.29 Z" />
<path fill="#ffffff" stroke="#ffffff" stroke-width="0.09375" opacity="1.00" d=" M 1050.34 590.50 C 1055.37 588.65 1061.11 593.92 1059.14 599.03 C 1057.86 603.75 1051.48 605.02 1047.90 602.08 C 1044.86 598.70 1045.48 591.88 1050.34 590.50 Z" />
<path fill="#ffffff" stroke="#ffffff" stroke-width="0.09375" opacity="1.00" d=" M 1104.38 590.49 C 1106.88 589.84 1109.81 590.46 1111.67 592.32 C 1113.32 594.56 1114.26 598.00 1112.31 600.36 C 1110.34 603.51 1105.52 604.97 1102.55 602.39 C 1098.24 599.51 1099.40 591.97 1104.38 590.49 Z" />
<path fill="#ffffff" stroke="#ffffff" stroke-width="0.09375" opacity="1.00" d=" M 1158.34 590.47 C 1161.85 589.40 1166.21 591.20 1166.92 595.05 C 1169.34 600.71 1161.15 606.38 1156.59 602.44 C 1152.23 599.69 1153.25 591.76 1158.34 590.47 Z" />
<path fill="#ffffff" stroke="#ffffff" stroke-width="0.09375" opacity="1.00" d=" M 1212.44 590.44 C 1216.90 589.16 1222.23 593.16 1221.14 597.98 C 1220.50 602.98 1213.72 605.65 1210.10 601.92 C 1205.87 598.98 1207.62 591.67 1212.44 590.44 Z" />
<path fill="#ffffff" stroke="#ffffff" stroke-width="0.09375" opacity="1.00" d=" M 1266.28 590.44 C 1272.14 588.29 1278.03 596.02 1273.85 600.83 C 1271.40 604.81 1264.74 604.67 1262.65 600.44 C 1260.25 596.98 1262.34 591.63 1266.28 590.44 Z" />
<path fill="#ffffff" stroke="#ffffff" stroke-width="0.09375" opacity="1.00" d=" M 1320.35 590.43 C 1323.34 589.64 1326.95 590.81 1328.39 593.69 C 1328.93 595.60 1328.94 597.67 1328.58 599.63 C 1326.81 603.80 1320.46 605.24 1317.49 601.58 C 1314.03 598.21 1315.66 591.68 1320.35 590.43 Z" />
<path fill="#ffffff" stroke="#ffffff" stroke-width="0.09375" opacity="1.00" d=" M 1374.38 590.46 C 1376.91 589.62 1379.67 590.76 1381.61 592.44 C 1385.03 596.73 1381.81 604.26 1375.97 603.61 C 1368.67 603.95 1367.24 591.88 1374.38 590.46 Z" />
<path fill="#ffffff" stroke="#ffffff" stroke-width="0.09375" opacity="1.00" d=" M 967.57 618.59 C 971.06 615.67 977.05 617.40 978.23 621.88 C 979.72 625.52 976.70 628.77 974.03 630.83 C 970.99 629.72 967.96 628.62 964.93 627.51 C 965.42 624.50 964.50 620.46 967.57 618.59 Z" />
<path fill="#ffffff" stroke="#ffffff" stroke-width="0.09375" opacity="1.00" d=" M 1023.39 617.52 C 1028.04 615.74 1033.48 620.08 1032.34 625.05 C 1031.93 629.65 1026.07 632.24 1022.34 629.65 C 1017.49 627.31 1018.13 618.95 1023.39 617.52 Z" />
<path fill="#ffffff" stroke="#ffffff" stroke-width="0.09375" opacity="1.00" d=" M 1077.27 617.47 C 1082.33 615.58 1088.13 620.71 1086.08 625.94 C 1084.76 630.82 1077.77 632.39 1074.67 628.30 C 1071.23 625.09 1072.97 618.92 1077.27 617.47 Z" />
<path fill="#ffffff" stroke="#ffffff" stroke-width="0.09375" opacity="1.00" d=" M 1131.27 617.49 C 1134.80 616.30 1139.18 618.20 1139.95 622.03 C 1141.97 627.17 1135.74 632.59 1130.92 630.11 C 1125.47 628.30 1125.74 619.01 1131.27 617.49 Z" />
<path fill="#ffffff" stroke="#ffffff" stroke-width="0.09375" opacity="1.00" d=" M 1185.28 617.46 C 1190.74 615.34 1196.30 621.61 1193.59 626.74 C 1191.73 632.07 1183.46 631.75 1181.38 626.80 C 1179.46 623.28 1181.50 618.57 1185.28 617.46 Z" />
<path fill="#ffffff" stroke="#ffffff" stroke-width="0.09375" opacity="1.00" d=" M 1239.26 617.43 C 1243.53 615.95 1248.55 619.53 1248.23 624.09 C 1248.18 629.11 1241.55 632.67 1237.53 629.46 C 1233.25 626.54 1234.20 618.95 1239.26 617.43 Z" />
<path fill="#ffffff" stroke="#ffffff" stroke-width="0.09375" opacity="1.00" d=" M 1293.36 617.43 C 1295.63 617.17 1298.35 617.03 1300.06 618.89 C 1302.49 620.99 1302.22 624.53 1301.34 627.32 C 1299.36 630.56 1294.62 631.65 1291.46 629.43 C 1287.09 626.50 1288.05 618.69 1293.36 617.43 Z" />
<path fill="#ffffff" stroke="#ffffff" stroke-width="0.09375" opacity="1.00" d=" M 1347.32 617.43 C 1349.62 616.81 1352.23 617.24 1353.99 618.96 C 1356.53 620.86 1356.06 624.55 1355.34 627.26 C 1353.49 630.60 1348.49 631.57 1345.37 629.42 C 1341.20 626.43 1342.03 618.66 1347.32 617.43 Z" />
<path fill="#ffffff" stroke="#ffffff" stroke-width="0.09375" opacity="1.00" d=" M 1401.32 617.46 C 1403.64 617.02 1406.41 617.01 1408.18 618.85 C 1410.68 621.78 1410.58 626.91 1407.42 629.34 C 1404.00 631.89 1398.00 630.43 1396.85 626.10 C 1395.43 622.58 1397.70 618.38 1401.32 617.46 Z" />
<path fill="#ffffff" stroke="#ffffff" stroke-width="0.09375" opacity="1.00" d=" M 1050.32 644.44 C 1054.53 643.06 1059.79 646.25 1059.46 650.93 C 1059.59 655.86 1053.41 659.40 1049.27 656.71 C 1044.34 654.32 1045.10 645.99 1050.32 644.44 Z" />
<path fill="#ffffff" stroke="#ffffff" stroke-width="0.09375" opacity="1.00" d=" M 1104.29 644.36 C 1109.33 642.53 1114.98 647.85 1113.02 652.92 C 1111.61 658.07 1104.17 659.02 1101.01 654.95 C 1099.08 651.28 1099.94 645.80 1104.29 644.36 Z" />
<path fill="#ffffff" stroke="#ffffff" stroke-width="0.09375" opacity="1.00" d=" M 1158.31 644.39 C 1163.28 642.63 1169.15 647.78 1166.86 652.89 C 1165.96 657.32 1159.96 658.82 1156.52 656.34 C 1152.11 653.59 1153.43 645.88 1158.31 644.39 Z" />
<path fill="#ffffff" stroke="#ffffff" stroke-width="0.09375" opacity="1.00" d=" M 1212.31 644.41 C 1214.38 644.04 1216.87 643.89 1218.54 645.45 C 1222.50 647.89 1222.05 654.95 1217.69 656.71 C 1214.33 658.77 1209.02 656.99 1208.16 652.98 C 1206.65 649.59 1208.88 645.43 1212.31 644.41 Z" />
<path fill="#ffffff" stroke="#ffffff" stroke-width="0.09375" opacity="1.00" d=" M 1266.36 644.40 C 1271.31 642.57 1277.01 647.99 1274.79 652.96 C 1273.39 657.57 1266.61 659.31 1263.42 655.53 C 1260.04 652.14 1261.68 645.61 1266.36 644.40 Z" />
<path fill="#ffffff" stroke="#ffffff" stroke-width="0.09375" opacity="1.00" d=" M 1320.28 644.37 C 1323.34 643.55 1326.85 644.79 1328.34 647.65 C 1329.06 649.78 1328.99 652.20 1328.30 654.35 C 1325.83 658.69 1318.26 658.57 1316.30 653.81 C 1314.32 650.21 1316.57 645.65 1320.28 644.37 Z" />
<path fill="#ffffff" stroke="#ffffff" stroke-width="0.09375" opacity="1.00" d=" M 1374.34 644.41 C 1376.62 644.11 1379.35 644.03 1381.04 645.93 C 1383.51 647.96 1383.03 651.60 1382.35 654.36 C 1379.90 658.53 1373.21 658.41 1370.55 654.57 C 1368.41 651.01 1369.96 645.26 1374.34 644.41 Z" />
<path fill="#ffffff" stroke="#ffffff" stroke-width="0.09375" opacity="1.00" d=" M 1428.15 644.36 C 1433.30 642.44 1438.44 647.92 1436.63 652.98 C 1435.44 659.11 1425.41 658.79 1423.89 653.03 C 1422.51 649.56 1424.76 645.57 1428.15 644.36 Z" />
<path fill="#ffffff" stroke="#ffffff" stroke-width="0.09375" opacity="1.00" d=" M 1131.38 671.44 C 1136.52 669.55 1141.86 674.92 1139.93 679.99 C 1138.76 684.44 1132.42 686.17 1129.22 682.84 C 1125.15 679.87 1126.62 672.78 1131.38 671.44 Z" />
<path fill="#ffffff" stroke="#ffffff" stroke-width="0.09375" opacity="1.00" d=" M 1185.32 671.46 C 1188.80 670.42 1193.30 672.05 1193.96 675.97 C 1195.91 681.29 1189.12 686.95 1184.34 683.68 C 1179.25 681.36 1179.77 672.75 1185.32 671.46 Z" />
<path fill="#ffffff" stroke="#ffffff" stroke-width="0.09375" opacity="1.00" d=" M 1239.33 671.42 C 1242.78 670.45 1247.21 672.15 1248.01 675.91 C 1249.74 681.27 1243.10 686.89 1238.22 683.70 C 1233.27 681.23 1233.71 672.72 1239.33 671.42 Z" />
<path fill="#ffffff" stroke="#ffffff" stroke-width="0.09375" opacity="1.00" d=" M 1293.30 671.41 C 1296.34 670.68 1300.00 671.58 1301.42 674.63 C 1302.21 677.55 1302.33 681.50 1299.30 683.21 C 1296.25 685.93 1290.88 684.34 1289.35 680.72 C 1287.36 677.32 1289.44 672.30 1293.30 671.41 Z" />
<path fill="#ffffff" stroke="#ffffff" stroke-width="0.09375" opacity="1.00" d=" M 1347.31 671.43 C 1350.83 670.44 1355.18 672.17 1355.92 676.03 C 1357.52 681.31 1351.02 686.76 1346.22 683.80 C 1341.09 681.57 1341.67 672.56 1347.31 671.43 Z" />
<path fill="#ffffff" stroke="#ffffff" stroke-width="0.09375" opacity="1.00" d=" M 1401.35 671.41 C 1404.32 670.75 1408.09 671.48 1409.27 674.67 C 1411.88 678.91 1407.82 685.02 1402.93 684.57 C 1398.21 684.50 1394.60 678.29 1397.45 674.34 C 1398.34 672.97 1399.65 671.66 1401.35 671.41 Z" />
<path fill="#ffffff" stroke="#ffffff" stroke-width="0.09375" opacity="1.00" d=" M 1158.33 698.45 C 1161.57 697.49 1165.48 698.66 1166.75 702.02 C 1169.29 707.11 1163.27 713.64 1158.03 711.05 C 1152.39 709.26 1152.52 699.84 1158.33 698.45 Z" />
<path fill="#ffffff" stroke="#ffffff" stroke-width="0.09375" opacity="1.00" d=" M 1212.29 698.40 C 1216.99 696.83 1222.46 700.99 1221.14 706.04 C 1220.61 710.79 1214.30 713.14 1210.59 710.36 C 1206.15 707.66 1207.09 699.61 1212.29 698.40 Z" />
<path fill="#ffffff" stroke="#ffffff" stroke-width="0.09375" opacity="1.00" d=" M 1266.25 698.37 C 1269.09 697.69 1272.32 698.49 1274.17 700.87 C 1275.51 703.54 1275.71 707.16 1273.37 709.35 C 1270.60 712.49 1264.61 712.29 1262.71 708.31 C 1260.17 704.89 1262.28 699.54 1266.25 698.37 Z" />
<path fill="#ffffff" stroke="#ffffff" stroke-width="0.09375" opacity="1.00" d=" M 1320.24 698.38 C 1323.28 697.78 1327.03 698.46 1328.39 701.62 C 1329.23 704.54 1329.21 708.50 1326.29 710.29 C 1321.67 714.02 1313.88 708.65 1315.88 703.03 C 1316.24 700.73 1318.17 699.14 1320.24 698.38 Z" />
<path fill="#ffffff" stroke="#ffffff" stroke-width="0.09375" opacity="1.00" d=" M 1374.24 698.38 C 1377.33 697.57 1380.97 698.62 1382.42 701.66 C 1383.00 704.40 1383.32 707.91 1380.87 709.88 C 1377.27 713.29 1370.30 711.07 1369.69 706.07 C 1368.92 702.86 1371.08 699.29 1374.24 698.38 Z" />
<path fill="#ffffff" stroke="#ffffff" stroke-width="0.09375" opacity="1.00" d=" M 1428.29 698.36 C 1432.06 697.25 1436.78 699.63 1436.80 703.88 C 1437.93 708.96 1431.67 713.62 1427.23 710.73 C 1421.80 708.49 1422.60 699.66 1428.29 698.36 Z" />
<path fill="#ffffff" stroke="#ffffff" stroke-width="0.09375" opacity="1.00" d=" M 1185.36 725.43 C 1190.02 723.62 1195.46 728.12 1194.20 733.06 C 1193.46 738.24 1185.97 740.42 1182.62 736.37 C 1179.06 733.18 1180.86 726.67 1185.36 725.43 Z" />
<path fill="#ffffff" stroke="#ffffff" stroke-width="0.09375" opacity="1.00" d=" M 1239.26 725.38 C 1243.17 724.11 1248.05 726.61 1248.18 731.00 C 1249.09 736.17 1242.66 740.35 1238.24 737.70 C 1233.05 735.47 1233.93 726.87 1239.26 725.38 Z" />
<path fill="#ffffff" stroke="#ffffff" stroke-width="0.09375" opacity="1.00" d=" M 1292.37 725.52 C 1295.36 724.85 1299.33 724.90 1300.98 728.01 C 1303.80 732.05 1300.91 738.29 1295.93 738.52 C 1291.48 739.01 1287.39 734.18 1288.96 729.91 C 1289.38 728.02 1290.74 726.50 1292.37 725.52 Z" />
<path fill="#ffffff" stroke="#ffffff" stroke-width="0.09375" opacity="1.00" d=" M 1347.23 725.34 C 1352.08 723.03 1357.71 728.94 1355.70 733.74 C 1354.70 737.60 1349.75 739.88 1346.27 737.75 C 1340.94 735.53 1341.72 726.84 1347.23 725.34 Z" />
<path fill="#ffffff" stroke="#ffffff" stroke-width="0.09375" opacity="1.00" d=" M 1401.23 725.42 C 1405.57 723.75 1410.36 727.43 1409.86 732.02 C 1410.36 737.01 1403.48 740.53 1399.64 737.39 C 1394.77 734.97 1395.89 726.55 1401.23 725.42 Z" />
<path fill="#ffffff" stroke="#ffffff" stroke-width="0.09375" opacity="1.00" d=" M 1211.37 752.55 C 1215.07 751.06 1220.21 752.56 1220.94 756.90 C 1222.89 762.21 1216.04 767.68 1211.33 764.68 C 1206.32 762.63 1206.86 754.88 1211.37 752.55 Z" />
<path fill="#ffffff" stroke="#ffffff" stroke-width="0.09375" opacity="1.00" d=" M 1265.37 752.50 C 1267.30 751.91 1269.47 751.93 1271.41 752.57 C 1276.46 754.67 1276.08 763.23 1270.94 764.98 C 1267.64 766.26 1262.96 764.70 1262.06 761.03 C 1260.85 757.91 1262.38 753.98 1265.37 752.50 Z" />
<path fill="#ffffff" stroke="#ffffff" stroke-width="0.09375" opacity="1.00" d=" M 1320.20 752.34 C 1324.45 750.55 1329.59 754.37 1328.85 759.00 C 1329.57 764.47 1321.87 767.55 1318.17 763.88 C 1314.01 760.85 1315.17 753.75 1320.20 752.34 Z" />
<path fill="#ffffff" stroke="#ffffff" stroke-width="0.09375" opacity="1.00" d=" M 1373.40 752.58 C 1377.41 750.58 1382.75 753.37 1383.04 757.93 C 1384.07 763.30 1376.92 767.74 1372.62 764.34 C 1368.00 761.79 1368.85 754.73 1373.40 752.58 Z" />
<path fill="#ffffff" stroke="#ffffff" stroke-width="0.09375" opacity="1.00" d=" M 1427.38 752.52 C 1431.26 750.59 1436.85 753.37 1436.82 757.91 C 1437.24 761.26 1434.67 764.25 1431.76 765.49 C 1427.86 766.04 1423.52 763.23 1423.53 759.05 C 1423.10 756.23 1425.08 753.85 1427.38 752.52 Z" />
<path fill="#ffffff" stroke="#ffffff" stroke-width="0.09375" opacity="1.00" d=" M 1185.32 779.36 C 1187.16 779.01 1189.26 778.86 1190.98 779.82 C 1195.37 782.14 1195.13 789.47 1190.68 791.64 C 1187.21 793.66 1182.39 791.76 1181.19 787.97 C 1179.79 784.57 1181.78 780.36 1185.32 779.36 Z" />
<path fill="#ffffff" stroke="#ffffff" stroke-width="0.09375" opacity="1.00" d=" M 1238.35 779.54 C 1241.82 778.43 1246.36 779.19 1247.74 783.01 C 1250.37 788.40 1243.52 794.88 1238.36 791.59 C 1233.44 789.43 1233.69 781.83 1238.35 779.54 Z" />
<path fill="#ffffff" stroke="#ffffff" stroke-width="0.09375" opacity="1.00" d=" M 1293.26 779.32 C 1296.35 778.61 1299.96 779.52 1301.44 782.57 C 1301.96 785.09 1302.41 788.34 1300.35 790.32 C 1297.42 793.72 1291.25 792.80 1289.38 788.75 C 1287.28 785.35 1289.47 780.34 1293.26 779.32 Z" />
<path fill="#ffffff" stroke="#ffffff" stroke-width="0.09375" opacity="1.00" d=" M 1347.27 779.38 C 1350.59 778.34 1354.60 779.77 1355.64 783.30 C 1357.97 788.46 1351.21 794.71 1346.27 791.70 C 1340.96 789.53 1341.59 780.62 1347.27 779.38 Z" />
<path fill="#ffffff" stroke="#ffffff" stroke-width="0.09375" opacity="1.00" d=" M 1400.41 779.51 C 1403.39 778.64 1407.32 778.89 1408.96 781.99 C 1411.64 785.97 1408.88 792.07 1404.00 792.41 C 1399.32 793.15 1395.41 788.12 1396.69 783.74 C 1397.40 781.98 1398.55 780.21 1400.41 779.51 Z" />
<path fill="#ffffff" stroke="#ffffff" stroke-width="0.09375" opacity="1.00" d=" M 1455.23 779.35 C 1457.34 779.08 1459.91 778.80 1461.64 780.38 C 1465.23 783.32 1464.49 790.32 1459.89 791.85 C 1455.90 793.70 1450.60 790.70 1450.47 786.22 C 1449.96 783.11 1452.34 780.20 1455.23 779.35 Z" />
<path fill="#ffffff" stroke="#ffffff" stroke-width="0.09375" opacity="1.00" d=" M 1320.24 806.32 C 1323.21 805.16 1327.11 806.65 1328.47 809.60 C 1328.96 812.13 1329.41 815.41 1327.19 817.28 C 1324.16 820.80 1317.20 819.60 1316.03 814.95 C 1314.52 811.52 1316.62 807.25 1320.24 806.32 Z" />
<path fill="#ffffff" stroke="#ffffff" stroke-width="0.09375" opacity="1.00" d=" M 1373.36 806.54 C 1377.33 804.53 1382.83 807.40 1383.03 811.97 C 1384.04 817.61 1376.37 821.83 1372.17 817.90 C 1368.14 815.15 1368.88 808.39 1373.36 806.54 Z" />
<path fill="#ffffff" stroke="#ffffff" stroke-width="0.09375" opacity="1.00" d=" M 1427.34 806.51 C 1429.93 805.88 1433.10 805.80 1435.18 807.80 C 1437.96 810.78 1437.37 816.50 1433.66 818.48 C 1431.07 820.05 1427.69 819.23 1425.41 817.53 C 1422.16 814.48 1423.15 808.23 1427.34 806.51 Z" />
<path fill="#ffffff" stroke="#ffffff" stroke-width="0.09375" opacity="1.00" d=" M 1400.40 833.43 C 1404.70 831.38 1410.67 834.93 1409.89 839.98 C 1410.17 845.61 1402.23 848.66 1398.62 844.38 C 1395.00 841.37 1396.30 835.29 1400.40 833.43 Z" />
<path fill="#ffffff" stroke="#ffffff" stroke-width="0.09375" opacity="1.00" d=" M 1454.36 833.49 C 1458.61 831.06 1464.74 835.09 1463.85 840.03 C 1464.27 845.13 1457.58 847.98 1453.64 845.29 C 1449.00 842.82 1449.61 835.52 1454.36 833.49 Z" />
<path fill="#ffffff" stroke="#ffffff" stroke-width="0.09375" opacity="1.00" d=" M 1427.27 860.45 C 1430.51 858.86 1434.56 860.40 1436.48 863.32 C 1437.52 866.73 1436.63 871.41 1432.92 872.74 C 1429.61 874.34 1424.97 872.57 1423.95 868.94 C 1422.59 865.82 1424.24 861.87 1427.27 860.45 Z" />
<path fill="#ffffff" stroke="#ffffff" stroke-width="0.09375" opacity="1.00" d=" M 1454.34 887.44 C 1458.32 885.33 1463.90 888.36 1463.85 892.99 C 1464.64 897.90 1458.73 902.03 1454.40 899.57 C 1449.38 897.61 1449.12 889.24 1454.34 887.44 Z" />
</g>
<g id="#aee0e9ff">
<path fill="#aee0e9" stroke="#aee0e9" stroke-width="0.09375" opacity="1.00" d=" M 709.31 245.30 C 722.48 244.06 735.74 243.54 748.98 243.22 C 749.71 245.59 748.79 248.39 750.54 250.44 C 753.56 255.15 761.76 253.21 762.61 247.73 C 762.70 246.17 762.46 244.62 762.29 243.07 C 765.78 242.24 769.41 242.86 772.97 242.70 C 783.16 242.83 793.39 242.36 803.55 243.24 C 803.20 245.94 802.86 249.00 804.89 251.18 C 807.91 253.84 813.81 253.74 815.74 249.78 C 816.87 247.92 816.37 245.71 816.70 243.67 C 830.05 244.30 843.42 244.94 856.72 246.36 C 857.46 249.39 859.21 253.12 862.94 252.85 C 866.66 253.64 869.35 250.70 870.93 247.74 C 911.99 251.60 952.68 258.95 992.82 268.37 C 992.45 271.40 991.21 274.93 993.35 277.61 C 995.22 280.20 998.87 280.28 1001.69 279.54 C 1004.45 278.24 1005.73 275.02 1005.51 272.09 C 1014.43 273.73 1023.02 276.79 1031.76 279.21 C 1046.31 283.75 1060.83 288.46 1075.00 294.11 C 1073.75 297.19 1072.08 300.85 1073.92 304.04 C 1076.07 307.51 1081.32 307.83 1084.27 305.26 C 1086.18 303.89 1086.09 301.26 1086.56 299.18 C 1089.55 299.44 1092.21 300.93 1094.93 302.09 C 1106.59 307.22 1118.26 312.38 1129.41 318.58 C 1133.80 320.49 1137.59 323.57 1142.11 325.20 C 1148.10 316.40 1152.61 306.62 1159.12 298.15 C 1163.34 291.84 1168.63 286.36 1174.10 281.13 C 1176.22 279.21 1178.32 277.17 1180.95 275.95 C 1180.95 280.91 1178.71 285.45 1177.08 290.02 C 1172.81 300.44 1166.86 310.07 1162.80 320.58 C 1158.74 319.63 1153.82 322.43 1153.93 326.91 C 1153.48 330.27 1156.05 332.71 1158.78 334.11 C 1159.00 335.16 1159.39 336.15 1159.95 337.05 C 1167.91 340.86 1176.63 343.28 1184.16 347.90 C 1181.88 350.14 1179.55 353.45 1181.27 356.73 C 1182.84 361.72 1190.52 362.33 1193.16 357.97 C 1193.90 356.26 1194.06 354.35 1194.79 352.63 C 1231.68 370.65 1265.77 394.26 1296.21 421.79 C 1340.16 461.52 1375.98 509.80 1403.56 562.13 C 1401.63 563.70 1398.70 564.04 1397.59 566.50 C 1394.87 570.21 1397.72 576.33 1402.33 576.57 C 1405.05 577.21 1407.17 575.11 1409.54 574.20 C 1429.65 614.83 1444.68 657.89 1455.24 701.96 C 1456.81 709.60 1459.04 717.15 1459.94 724.92 C 1457.70 725.28 1455.16 724.88 1453.27 726.33 C 1449.35 728.84 1449.53 736.06 1454.21 737.69 C 1456.89 739.47 1459.89 737.69 1462.66 737.11 C 1473.82 800.02 1476.40 864.39 1470.71 928.00 C 1469.46 939.37 1468.76 950.83 1466.62 962.08 C 1464.93 958.91 1463.65 955.50 1462.92 952.01 C 1463.69 949.21 1464.63 945.87 1462.66 943.35 C 1461.14 941.04 1457.44 941.39 1456.37 938.68 C 1440.47 906.34 1413.49 880.50 1382.79 862.18 C 1373.14 856.16 1362.81 851.33 1352.73 846.15 C 1354.74 843.97 1356.85 841.18 1355.90 838.02 C 1355.01 833.99 1350.06 831.41 1346.36 833.50 C 1343.07 834.81 1342.76 838.62 1342.26 841.63 C 1320.13 832.48 1297.35 824.96 1274.29 818.52 C 1272.59 818.21 1273.96 816.37 1274.35 815.52 C 1276.41 812.48 1274.60 808.00 1271.43 806.56 C 1269.26 805.92 1266.86 805.91 1264.74 806.65 C 1262.31 808.67 1261.45 811.83 1261.55 814.90 C 1234.98 808.15 1208.31 801.72 1181.60 795.51 C 1175.62 785.49 1169.74 775.41 1162.95 765.90 C 1164.31 763.92 1166.66 762.60 1167.24 760.14 C 1167.81 757.38 1166.59 754.15 1163.97 752.89 C 1160.97 751.11 1157.31 752.34 1154.79 754.38 C 1149.46 748.66 1144.81 742.31 1139.50 736.56 C 1139.38 733.82 1141.39 730.93 1139.49 728.30 C 1137.46 724.48 1132.93 725.07 1129.34 725.54 C 1123.46 720.50 1118.08 714.78 1112.17 709.73 C 1112.78 707.07 1114.19 704.17 1112.46 701.63 C 1110.92 697.72 1105.67 697.37 1102.54 699.46 C 1100.32 700.71 1098.55 698.21 1096.86 697.18 C 1091.70 692.89 1085.88 689.44 1080.88 684.99 C 1082.54 683.66 1084.82 682.78 1085.68 680.68 C 1087.16 677.87 1085.97 674.25 1083.73 672.24 C 1081.03 670.74 1077.17 670.71 1074.81 672.88 C 1073.06 674.71 1073.07 677.38 1072.58 679.71 C 1068.59 677.48 1065.06 674.30 1060.64 672.96 C 1059.15 670.77 1056.56 669.86 1054.43 668.51 C 1049.82 665.96 1045.42 662.98 1040.54 660.96 C 1036.19 658.54 1032.02 655.71 1027.25 654.15 C 1021.51 650.52 1015.07 648.10 1008.96 645.16 C 997.49 639.98 985.80 635.30 974.03 630.83 C 976.70 628.77 979.72 625.52 978.23 621.88 C 977.05 617.40 971.06 615.67 967.57 618.59 C 964.50 620.46 965.42 624.50 964.93 627.51 C 957.83 625.08 950.77 622.52 943.57 620.38 C 941.48 619.74 939.42 619.06 937.35 618.38 C 921.95 613.54 906.36 609.30 890.70 605.39 L 890.46 604.73 C 892.69 603.34 895.72 602.57 896.86 599.95 C 898.40 597.06 897.41 593.18 894.68 591.37 C 892.25 589.45 889.02 590.50 886.28 590.90 C 876.94 562.58 862.35 535.86 842.54 513.49 C 812.89 479.73 772.64 456.94 730.48 442.54 C 733.26 440.58 736.44 437.90 735.64 434.05 C 735.17 428.44 727.10 426.35 723.82 430.80 C 721.26 433.47 722.42 437.32 723.71 440.29 C 716.68 438.10 709.65 435.89 702.50 434.16 C 680.01 428.24 657.09 423.81 634.00 421.06 C 631.66 419.04 630.42 415.99 628.48 413.61 C 614.09 391.55 598.16 370.04 577.63 353.29 C 561.29 340.08 542.12 330.41 521.70 325.42 C 518.75 325.05 517.97 321.34 515.05 320.86 C 511.88 319.45 509.17 322.94 505.99 322.28 C 500.67 321.52 495.31 321.03 489.96 320.57 C 485.65 320.22 481.27 320.70 477.03 319.72 C 489.45 306.86 504.92 297.47 520.94 289.78 C 533.58 283.81 546.59 278.43 560.00 274.50 C 561.28 276.53 562.47 279.12 565.03 279.76 C 568.53 281.07 573.46 278.78 573.65 274.75 C 573.96 272.90 572.71 269.73 575.51 269.47 C 597.75 262.78 620.41 257.37 643.32 253.51 C 649.75 253.13 655.91 251.04 662.32 250.44 C 672.91 248.73 683.62 247.93 694.24 246.40 C 696.18 248.92 697.06 252.93 700.95 253.03 C 705.82 254.08 708.71 249.50 709.31 245.30 M 621.28 266.48 C 616.53 266.28 612.91 271.70 615.00 275.97 C 616.49 281.42 625.29 281.38 627.23 276.28 C 629.34 272.01 626.07 266.53 621.28 266.48 M 729.28 266.50 C 724.10 266.18 720.28 272.47 723.20 276.83 C 725.51 281.53 733.46 281.04 735.12 276.04 C 737.39 271.91 733.82 266.61 729.28 266.50 M 782.32 266.53 C 778.33 266.90 775.31 271.08 776.35 274.99 C 776.98 279.11 782.10 281.26 785.70 279.55 C 788.75 278.55 790.02 274.96 789.54 272.00 C 789.13 268.57 785.52 266.48 782.32 266.53 M 945.35 266.50 C 941.31 266.29 937.44 269.86 938.26 274.04 C 937.76 280.53 948.17 282.16 950.68 276.67 C 953.32 272.55 950.08 266.89 945.35 266.50 M 672.31 267.31 C 667.65 268.71 667.01 275.44 670.62 278.31 C 674.19 282.12 681.69 279.40 681.69 274.06 C 682.49 269.07 676.85 264.81 672.31 267.31 M 833.44 267.49 C 829.76 269.70 829.02 275.59 832.39 278.45 C 836.26 282.04 843.37 279.26 843.62 273.91 C 844.66 268.54 837.80 264.95 833.44 267.49 M 887.37 267.56 C 882.29 270.15 883.47 278.77 889.05 279.96 C 894.24 281.77 899.30 275.79 897.06 270.96 C 895.87 266.99 890.78 265.51 887.37 267.56 M 594.27 293.50 C 589.94 293.59 586.01 297.81 587.66 302.20 C 588.71 308.81 599.84 308.37 600.66 301.93 C 601.77 297.84 598.45 293.57 594.27 293.50 M 701.42 293.49 C 696.94 293.90 693.88 298.89 695.82 303.02 C 697.71 308.56 707.14 308.23 708.44 302.38 C 710.29 297.80 705.91 293.29 701.42 293.49 M 810.22 293.47 C 805.63 293.28 801.88 298.01 803.54 302.41 C 804.78 308.56 815.26 308.47 816.38 302.28 C 817.80 298.09 814.44 293.82 810.22 293.47 M 917.32 293.52 C 913.13 293.79 910.25 297.96 911.35 301.98 C 912.09 308.12 922.15 308.73 924.03 302.96 C 926.18 298.46 922.06 293.29 917.32 293.52 M 536.48 294.57 C 532.61 297.00 532.34 303.25 536.20 305.81 C 540.47 309.03 547.45 305.37 546.87 299.95 C 547.05 294.82 540.58 291.87 536.48 294.57 M 644.35 294.59 C 638.77 297.64 641.53 307.62 648.02 306.84 C 653.18 307.71 656.50 301.10 653.98 297.03 C 652.27 293.58 647.53 292.81 644.35 294.59 M 752.34 294.52 C 747.96 296.89 748.30 304.14 752.79 306.26 C 757.24 308.75 763.10 305.03 762.72 299.96 C 762.81 294.85 756.52 291.89 752.34 294.52 M 860.32 294.53 C 855.40 297.09 856.39 305.80 862.00 306.79 C 866.15 308.34 871.07 304.42 870.55 300.02 C 870.81 294.98 864.35 291.95 860.32 294.53 M 968.35 294.46 C 964.39 296.56 964.00 302.81 967.42 305.57 C 969.57 307.35 972.70 307.41 975.17 306.26 C 978.11 304.37 979.55 300.24 977.70 297.11 C 976.15 293.70 971.46 292.61 968.35 294.46 M 1022.39 294.46 C 1018.91 295.91 1018.57 300.16 1019.58 303.33 C 1021.72 308.29 1030.16 308.22 1031.92 302.98 C 1034.62 297.59 1027.57 290.93 1022.39 294.46 M 566.28 320.49 C 561.95 321.04 558.85 326.05 561.01 330.04 C 562.62 334.18 568.25 334.99 571.58 332.55 C 573.66 331.07 573.98 328.32 573.79 325.98 C 573.35 322.45 569.60 320.25 566.28 320.49 M 620.45 320.46 C 616.00 320.97 613.05 325.86 614.92 329.99 C 616.44 334.99 624.51 335.28 626.87 330.84 C 629.91 326.38 625.71 319.85 620.45 320.46 M 674.39 320.44 C 669.63 320.81 666.51 326.70 669.28 330.69 C 671.87 336.17 681.97 334.43 681.69 328.02 C 682.47 323.84 678.43 320.07 674.39 320.44 M 728.30 320.48 C 723.89 320.91 720.78 325.97 722.85 330.02 C 724.58 335.30 733.22 335.21 735.10 330.03 C 737.59 325.57 733.17 319.83 728.30 320.48 M 782.34 320.51 C 778.76 321.03 775.51 324.26 776.27 328.07 C 776.26 334.30 785.98 336.07 788.71 330.75 C 791.64 326.39 787.58 319.77 782.34 320.51 M 836.42 320.46 C 832.37 320.85 829.17 324.96 830.32 329.00 C 831.23 334.75 840.26 335.80 842.70 330.63 C 845.82 326.33 841.50 319.88 836.42 320.46 M 890.25 320.45 C 886.21 320.83 883.18 325.08 884.32 329.02 C 885.14 334.18 892.64 335.56 895.92 331.94 C 897.36 329.97 898.11 327.24 897.11 324.91 C 896.46 321.87 893.01 320.56 890.25 320.45 M 944.33 320.44 C 940.25 320.79 937.25 324.96 938.33 328.95 C 939.09 335.11 949.12 335.63 951.03 329.91 C 953.22 325.47 949.08 320.12 944.33 320.44 M 998.44 320.48 C 995.88 320.90 993.10 322.35 992.31 324.99 C 992.02 327.20 991.80 329.81 993.39 331.62 C 996.37 335.31 1003.31 334.53 1004.96 329.90 C 1007.06 325.63 1003.01 320.25 998.44 320.48 M 1052.43 320.45 C 1048.61 320.61 1045.27 324.13 1046.17 328.04 C 1045.88 334.54 1055.84 335.98 1058.53 330.66 C 1061.44 326.41 1057.45 320.08 1052.43 320.45 M 1106.34 320.45 C 1101.97 320.72 1098.38 325.67 1100.32 329.82 C 1101.63 333.81 1106.71 334.83 1110.16 333.18 C 1113.11 331.40 1114.16 327.29 1112.62 324.25 C 1111.75 321.69 1108.78 320.65 1106.34 320.45 M 594.25 347.48 C 589.41 347.12 585.78 352.79 587.99 357.03 C 589.82 361.76 597.33 362.30 599.88 357.97 C 602.55 353.76 599.44 347.30 594.25 347.48 M 648.26 347.47 C 643.40 347.13 639.77 352.59 641.87 356.95 C 643.44 362.27 652.51 362.28 654.17 357.00 C 656.40 352.76 652.96 347.41 648.26 347.47 M 701.29 347.50 C 696.16 347.71 693.34 354.55 696.72 358.36 C 699.68 362.75 708.06 361.21 708.60 355.67 C 709.78 351.30 705.70 346.94 701.29 347.50 M 809.42 347.48 C 804.88 347.64 801.57 353.06 803.88 357.10 C 805.88 362.96 815.71 361.76 816.52 355.69 C 817.62 351.35 813.84 347.03 809.42 347.48 M 864.27 347.49 C 859.80 347.06 855.89 351.63 857.34 356.01 C 858.22 361.71 867.14 362.68 869.66 357.72 C 872.42 353.69 869.17 347.53 864.27 347.49 M 917.42 347.48 C 911.17 347.41 908.83 356.75 913.97 359.87 C 917.63 362.55 923.20 360.31 924.39 356.05 C 925.34 351.88 922.00 346.92 917.42 347.48 M 1025.46 347.43 C 1020.25 347.49 1017.35 353.75 1020.04 357.99 C 1022.98 363.14 1032.14 361.01 1032.42 355.02 C 1033.08 350.99 1029.37 347.36 1025.46 347.43 M 1079.43 347.45 C 1074.13 347.53 1071.43 353.75 1073.98 358.07 C 1076.76 362.59 1085.20 361.54 1086.10 356.02 C 1087.53 351.88 1083.71 347.18 1079.43 347.45 M 1132.31 347.50 C 1127.34 348.30 1125.37 354.84 1128.42 358.58 C 1131.50 362.53 1139.07 361.22 1140.02 356.07 C 1141.59 351.34 1137.09 346.64 1132.31 347.50 M 752.34 348.52 C 748.21 350.91 748.35 357.18 752.04 359.90 C 756.15 362.45 762.30 360.06 762.67 354.97 C 763.36 349.52 756.98 345.35 752.34 348.52 M 968.31 348.37 C 964.65 350.52 964.06 356.11 966.93 359.14 C 970.16 362.11 976.39 361.32 977.95 356.90 C 980.67 351.44 973.55 344.85 968.31 348.37 M 620.48 374.48 C 615.70 374.72 612.74 380.73 615.29 384.69 C 617.57 389.26 625.31 388.92 627.22 384.19 C 629.53 379.66 625.54 373.80 620.48 374.48 M 674.28 374.48 C 667.84 374.82 666.35 384.08 671.42 387.35 C 674.22 387.93 677.89 388.54 679.87 385.89 C 684.51 381.89 680.24 373.54 674.28 374.48 M 728.37 374.47 C 723.18 374.58 720.29 381.47 723.67 385.31 C 726.40 389.34 733.37 388.59 735.13 383.99 C 737.51 379.54 733.30 373.80 728.37 374.47 M 782.38 374.48 C 778.26 374.73 775.25 379.04 776.36 383.01 C 777.62 388.43 786.07 389.85 788.66 384.73 C 791.77 380.25 787.62 373.97 782.38 374.48 M 837.35 374.49 C 833.25 374.22 829.60 377.82 830.21 381.96 C 830.40 387.70 839.22 390.30 842.19 385.19 C 845.76 381.31 842.48 374.60 837.35 374.49 M 890.38 374.42 C 886.26 374.69 883.31 379.00 884.21 382.96 C 885.45 388.09 893.37 389.87 896.26 385.20 C 899.87 380.97 895.74 373.91 890.38 374.42 M 999.23 374.47 C 996.70 374.43 994.14 375.61 992.76 377.77 C 990.68 381.74 992.90 387.80 997.86 387.85 C 1002.63 388.86 1007.09 383.32 1005.04 378.93 C 1004.29 376.39 1001.78 374.71 999.23 374.47 M 1052.42 374.46 C 1047.89 374.52 1044.60 379.54 1046.39 383.72 C 1047.97 388.94 1056.01 389.28 1058.48 384.62 C 1061.50 380.40 1057.42 374.06 1052.42 374.46 M 1106.38 374.40 C 1104.59 374.66 1102.81 375.36 1101.46 376.54 C 1098.49 379.99 1099.83 386.05 1104.20 387.61 C 1107.01 388.15 1110.68 388.08 1112.06 385.06 C 1115.54 380.84 1111.68 374.07 1106.38 374.40 M 1160.33 374.47 C 1155.81 374.37 1152.23 379.71 1154.37 383.80 C 1155.87 388.39 1162.71 389.32 1165.67 385.64 C 1169.60 381.56 1166.07 373.84 1160.33 374.47 M 1214.42 374.45 C 1208.83 374.22 1205.46 381.64 1209.36 385.62 C 1212.50 389.68 1220.07 388.13 1220.89 382.90 C 1222.63 378.78 1218.63 374.18 1214.42 374.45 M 942.14 375.09 C 937.17 376.72 936.74 384.33 941.01 386.92 C 944.61 389.15 950.11 387.44 951.21 383.15 C 953.24 378.07 947.00 372.47 942.14 375.09 M 647.42 401.44 C 642.94 401.65 639.89 406.94 641.92 410.94 C 643.54 415.58 650.64 416.21 653.37 412.31 C 657.15 408.14 653.04 400.43 647.42 401.44 M 701.36 401.45 C 697.75 401.85 694.63 405.19 695.38 408.95 C 695.49 415.07 705.06 417.15 707.77 411.69 C 710.68 407.25 706.73 400.55 701.36 401.45 M 755.39 401.47 C 749.79 401.65 747.17 409.11 751.16 412.87 C 754.72 416.87 762.35 414.37 762.59 408.98 C 763.37 404.82 759.50 400.95 755.39 401.47 M 916.42 401.46 C 910.82 402.46 909.06 411.04 914.12 413.85 C 918.30 416.77 924.97 413.21 924.57 408.05 C 924.73 403.88 920.30 400.85 916.42 401.46 M 970.37 401.50 C 964.65 402.42 963.12 411.20 968.19 413.89 C 972.60 416.90 979.44 412.80 978.50 407.47 C 978.31 403.43 974.17 400.77 970.37 401.50 M 1024.35 401.44 C 1021.14 402.37 1018.38 405.49 1019.15 409.01 C 1019.08 413.78 1025.16 416.25 1028.99 414.09 C 1032.66 412.33 1033.43 407.06 1031.12 403.94 C 1029.30 402.27 1026.87 401.05 1024.35 401.44 M 1132.39 401.50 C 1127.13 401.96 1125.32 408.89 1128.35 412.65 C 1131.40 416.12 1138.13 415.45 1139.74 410.84 C 1142.20 406.14 1137.41 400.44 1132.39 401.50 M 1186.34 401.50 C 1182.06 402.20 1179.21 407.51 1181.60 411.32 C 1183.70 416.64 1193.01 415.74 1193.93 410.03 C 1195.72 405.47 1190.90 400.57 1186.34 401.50 M 1240.39 401.45 C 1234.95 402.07 1232.67 409.72 1236.87 413.16 C 1240.28 416.42 1246.89 414.78 1247.97 410.09 C 1249.63 405.55 1244.92 400.66 1240.39 401.45 M 806.39 402.40 C 802.28 404.68 802.07 411.42 806.15 413.82 C 810.32 416.75 817.05 413.34 816.66 408.10 C 816.97 403.03 810.48 399.58 806.39 402.40 M 860.35 402.47 C 856.08 404.63 856.05 411.51 860.17 413.84 C 864.40 416.86 871.16 413.22 870.61 407.95 C 870.78 403.05 864.32 399.39 860.35 402.47 M 1076.38 402.33 C 1071.19 404.66 1072.24 414.09 1078.09 414.67 C 1082.49 415.95 1087.68 411.63 1086.16 407.01 C 1085.99 402.51 1079.95 399.92 1076.38 402.33 M 835.33 428.51 C 830.65 429.48 828.37 435.76 831.66 439.36 C 834.82 444.04 843.35 441.67 843.58 435.96 C 844.35 431.47 839.72 427.28 835.33 428.51 M 943.34 428.46 C 938.51 429.40 936.54 435.80 939.48 439.55 C 942.63 443.42 949.93 442.11 951.20 437.15 C 953.02 432.45 948.15 427.32 943.34 428.46 M 1159.38 428.44 C 1155.29 429.15 1152.59 433.86 1154.33 437.70 C 1155.93 443.15 1164.99 443.21 1166.70 437.78 C 1169.11 433.18 1164.41 427.30 1159.38 428.44 M 779.32 429.34 C 774.58 432.13 775.44 440.56 781.07 441.60 C 785.50 442.93 790.42 439.01 789.63 434.37 C 789.34 429.56 783.24 426.70 779.32 429.34 M 887.31 429.35 C 883.86 431.15 883.30 435.78 885.07 438.95 C 887.88 442.94 895.09 442.78 897.01 437.95 C 899.86 432.32 892.68 425.59 887.31 429.35 M 995.28 429.34 C 991.92 430.98 991.49 435.12 992.56 438.32 C 995.15 443.29 1003.84 442.87 1005.21 437.11 C 1007.18 431.52 1000.30 425.85 995.28 429.34 M 1049.32 429.25 C 1043.86 431.95 1045.54 441.91 1051.96 441.76 C 1056.57 442.62 1060.97 437.43 1059.06 433.06 C 1057.86 429.11 1052.84 427.09 1049.32 429.25 M 1103.27 429.29 C 1099.37 430.92 1099.05 436.56 1101.43 439.57 C 1104.52 443.54 1111.97 442.03 1113.00 436.98 C 1115.23 431.46 1108.11 426.06 1103.27 429.29 M 1211.23 429.22 C 1207.59 431.22 1206.50 436.49 1209.41 439.58 C 1211.14 442.24 1214.70 441.98 1217.42 441.36 C 1220.19 439.76 1222.05 436.19 1220.85 433.07 C 1219.79 429.15 1214.66 427.07 1211.23 429.22 M 1264.45 429.57 C 1261.81 431.63 1260.73 435.46 1262.60 438.40 C 1264.80 443.65 1273.76 442.47 1274.89 437.03 C 1276.88 431.23 1269.33 425.77 1264.45 429.57 M 808.41 455.47 C 803.46 456.43 801.26 463.41 805.17 466.80 C 808.87 471.29 817.18 467.75 816.64 461.99 C 816.91 457.76 812.41 454.44 808.41 455.47 M 862.43 455.48 C 857.33 456.22 855.28 463.54 859.13 466.86 C 862.23 470.04 868.17 469.08 869.98 464.98 C 872.58 460.15 867.69 454.12 862.43 455.48 M 916.39 455.48 C 912.74 456.22 910.36 460.12 911.37 463.72 C 912.03 469.40 920.99 470.60 923.55 465.69 C 926.93 461.01 921.88 454.03 916.39 455.48 M 970.35 455.47 C 965.63 456.25 963.68 462.20 966.10 465.99 C 968.72 469.71 975.30 469.84 977.52 465.61 C 980.83 460.96 975.89 453.85 970.35 455.47 M 1024.45 455.48 C 1020.95 456.09 1018.33 459.52 1019.22 463.08 C 1019.14 469.61 1029.60 470.79 1031.80 465.04 C 1034.33 460.36 1029.62 454.23 1024.45 455.48 M 1078.30 455.50 C 1073.32 455.99 1071.84 462.16 1073.97 465.99 C 1076.77 470.00 1083.88 469.61 1085.81 464.94 C 1088.23 460.11 1083.62 454.07 1078.30 455.50 M 1132.33 455.45 C 1128.09 455.98 1125.68 460.92 1127.40 464.70 C 1128.96 470.16 1138.11 470.17 1139.71 464.73 C 1141.97 460.06 1137.50 454.10 1132.33 455.45 M 1186.36 455.45 C 1179.30 456.17 1178.96 467.63 1185.98 468.63 C 1191.29 470.44 1196.09 463.89 1193.59 459.26 C 1192.47 456.45 1189.26 454.91 1186.36 455.45 M 1240.32 455.41 C 1236.13 456.07 1233.36 460.86 1235.34 464.75 C 1237.05 470.57 1246.80 469.97 1247.95 464.09 C 1249.61 459.56 1244.92 454.46 1240.32 455.41 M 1294.41 455.44 C 1290.36 455.76 1287.43 460.29 1288.97 464.08 C 1290.09 469.07 1297.39 470.42 1300.52 466.57 C 1302.19 464.84 1301.92 462.17 1301.69 459.97 C 1301.05 456.74 1297.51 454.91 1294.41 455.44 M 889.33 482.48 C 884.49 483.46 881.98 490.53 886.11 493.82 C 889.23 497.57 896.16 495.79 897.22 491.07 C 898.88 486.37 894.32 480.94 889.33 482.48 M 943.31 482.44 C 937.89 483.38 936.18 491.29 940.72 494.35 C 944.37 497.65 950.71 495.08 951.41 490.30 C 952.66 485.67 947.78 481.43 943.31 482.44 M 997.26 482.40 C 991.91 483.38 990.03 491.29 994.62 494.36 C 998.70 497.93 1005.76 494.41 1005.58 489.07 C 1005.65 484.78 1001.43 481.42 997.26 482.40 M 1050.46 482.53 C 1045.43 483.95 1044.47 491.35 1048.39 494.43 C 1051.87 497.27 1058.06 495.51 1059.10 490.98 C 1061.11 485.95 1055.35 480.84 1050.46 482.53 M 1105.32 482.43 C 1101.09 483.12 1098.58 487.79 1100.40 491.71 C 1102.13 497.53 1111.98 496.94 1113.08 490.99 C 1114.51 486.36 1110.19 481.20 1105.32 482.43 M 1158.42 482.50 C 1153.60 483.76 1152.27 490.88 1155.93 494.07 C 1159.22 497.46 1165.85 495.66 1167.04 491.08 C 1168.67 486.10 1163.48 480.81 1158.42 482.50 M 1266.40 482.48 C 1261.51 483.71 1259.93 490.95 1263.87 494.11 C 1267.26 497.36 1273.79 495.67 1274.88 491.00 C 1276.78 485.99 1271.33 480.95 1266.40 482.48 M 1321.37 482.40 C 1318.41 482.76 1316.19 485.07 1315.75 487.99 C 1314.41 492.88 1320.18 497.21 1324.68 495.48 C 1329.03 494.22 1329.88 488.50 1327.95 484.96 C 1326.33 483.17 1323.82 481.90 1321.37 482.40 M 833.30 483.26 C 828.95 485.84 829.18 493.15 833.98 495.12 C 838.50 497.70 844.65 493.06 843.59 488.03 C 843.06 483.34 837.22 480.79 833.30 483.26 M 1211.18 483.20 C 1207.10 485.05 1206.52 491.38 1209.94 494.14 C 1213.26 497.39 1219.99 495.76 1220.88 490.97 C 1223.03 485.55 1216.02 480.03 1211.18 483.20 M 861.35 509.55 C 857.32 511.29 855.65 516.98 858.73 520.34 C 861.96 524.90 870.22 522.65 870.54 516.95 C 871.54 511.81 866.06 507.86 861.35 509.55 M 916.31 509.41 C 912.26 510.11 910.25 514.66 911.54 518.36 C 912.88 523.89 921.94 524.17 923.91 518.91 C 926.46 514.12 921.56 507.97 916.31 509.41 M 970.35 509.41 C 965.07 510.20 963.30 517.56 967.15 520.94 C 970.27 523.96 976.21 523.12 977.89 518.95 C 980.43 514.22 975.62 507.87 970.35 509.41 M 1131.42 509.56 C 1127.45 510.79 1125.56 515.86 1127.69 519.42 C 1130.06 524.45 1138.91 523.46 1140.07 517.98 C 1141.70 513.05 1136.51 507.50 1131.42 509.56 M 1186.27 509.40 C 1181.86 510.08 1179.11 515.63 1181.62 519.44 C 1184.16 523.86 1191.73 523.92 1193.69 518.95 C 1196.14 514.26 1191.55 507.90 1186.27 509.40 M 1348.27 509.37 C 1346.13 509.63 1344.08 511.04 1343.25 513.04 C 1341.40 516.71 1343.74 522.13 1348.03 522.58 C 1351.93 523.47 1356.40 520.11 1355.89 515.95 C 1356.40 511.93 1351.99 508.70 1348.27 509.37 M 1022.29 510.23 C 1017.92 512.32 1017.98 519.56 1022.23 521.76 C 1026.43 524.48 1032.80 521.20 1032.48 516.02 C 1032.74 510.94 1026.47 507.53 1022.29 510.23 M 1076.29 510.26 C 1072.88 511.89 1072.52 516.18 1073.67 519.37 C 1076.26 524.17 1084.87 523.68 1086.09 518.04 C 1088.33 512.39 1081.25 506.93 1076.29 510.26 M 1237.38 510.51 C 1232.58 513.79 1234.80 523.00 1241.01 522.62 C 1245.32 523.32 1248.86 519.12 1248.09 515.01 C 1247.80 510.04 1241.14 507.75 1237.38 510.51 M 1292.16 510.16 C 1288.44 511.81 1287.66 516.95 1290.02 520.06 C 1292.99 524.75 1301.68 522.62 1301.97 517.04 C 1303.38 511.73 1296.56 507.45 1292.16 510.16 M 889.27 536.40 C 885.03 537.50 882.45 543.04 885.27 546.72 C 887.89 551.28 896.08 550.44 897.14 545.05 C 899.11 540.33 894.17 534.93 889.27 536.40 M 943.35 536.37 C 940.40 537.12 937.68 539.77 938.18 543.04 C 937.75 546.79 941.44 549.91 945.02 549.65 C 948.43 549.89 951.13 546.80 951.52 543.60 C 952.31 539.23 947.55 535.27 943.35 536.37 M 997.27 536.36 C 993.54 537.25 991.07 541.19 992.27 544.94 C 993.40 550.62 1002.70 551.41 1004.75 545.96 C 1007.55 541.22 1002.44 534.98 997.27 536.36 M 1051.34 536.42 C 1045.90 537.06 1044.52 544.43 1047.88 548.05 C 1051.25 551.24 1057.74 549.67 1059.15 545.17 C 1061.02 540.55 1056.16 535.05 1051.34 536.42 M 1104.41 536.51 C 1100.25 538.09 1098.74 543.28 1101.00 546.99 C 1103.84 551.40 1111.90 550.36 1112.95 544.97 C 1115.03 539.83 1109.37 534.81 1104.41 536.51 M 1158.33 536.50 C 1154.02 537.70 1152.55 543.50 1155.05 546.98 C 1157.81 551.49 1165.79 550.07 1167.07 545.03 C 1168.65 540.01 1163.46 534.57 1158.33 536.50 M 1212.35 536.50 C 1205.99 537.94 1206.44 548.72 1212.94 549.52 C 1217.93 550.97 1222.62 545.65 1220.94 540.88 C 1220.01 537.26 1215.79 535.44 1212.35 536.50 M 1266.28 536.49 C 1262.66 537.58 1260.39 542.33 1262.32 545.74 C 1263.55 549.58 1268.54 550.75 1271.80 548.79 C 1275.90 546.83 1276.35 540.11 1272.49 537.67 C 1270.74 536.26 1268.39 536.09 1266.28 536.49 M 1320.43 536.47 C 1316.43 537.66 1314.22 542.99 1316.55 546.59 C 1318.97 550.94 1326.03 550.59 1328.35 546.33 C 1329.02 544.21 1328.98 541.85 1328.34 539.74 C 1326.89 536.99 1323.36 535.69 1320.43 536.47 M 1374.36 536.47 C 1369.07 537.61 1367.94 545.68 1372.34 548.52 C 1376.36 551.69 1383.41 548.31 1382.90 543.02 C 1383.26 538.62 1378.49 535.12 1374.36 536.47 M 916.29 563.43 C 910.09 564.21 909.47 573.79 914.91 576.08 C 918.82 578.04 923.85 575.22 924.52 570.97 C 925.45 566.47 920.68 562.18 916.29 563.43 M 970.27 563.38 C 965.14 564.19 963.21 571.61 967.17 574.88 C 970.20 577.95 976.17 577.01 977.85 572.93 C 980.54 568.19 975.56 561.80 970.27 563.38 M 1023.37 563.50 C 1019.03 564.74 1018.01 570.52 1020.13 574.02 C 1022.95 577.79 1029.83 577.54 1031.80 572.98 C 1034.57 567.79 1028.85 561.48 1023.37 563.50 M 1078.37 563.36 C 1074.17 563.97 1071.53 568.87 1073.48 572.67 C 1075.31 578.25 1084.83 577.87 1086.02 572.06 C 1087.88 567.34 1083.27 562.11 1078.37 563.36 M 1131.39 563.52 C 1126.30 565.08 1125.24 572.33 1129.42 575.47 C 1133.01 577.93 1139.10 576.59 1139.97 571.88 C 1141.88 566.85 1136.38 561.63 1131.39 563.52 M 1186.19 563.37 C 1182.37 564.08 1179.82 568.30 1181.17 571.99 C 1182.26 577.76 1191.86 578.35 1193.61 572.73 C 1195.97 568.14 1191.36 561.83 1186.19 563.37 M 1239.39 563.47 C 1235.13 564.70 1233.23 570.49 1236.02 573.99 C 1238.89 578.43 1246.43 577.02 1247.90 572.03 C 1249.95 566.96 1244.34 561.86 1239.39 563.47 M 1293.37 563.47 C 1289.99 564.50 1287.66 568.71 1288.96 572.08 C 1290.14 577.60 1298.97 578.21 1301.37 573.34 C 1301.97 571.16 1302.08 568.74 1301.32 566.60 C 1299.96 563.70 1296.27 562.82 1293.37 563.47 M 1348.31 563.32 C 1343.94 563.72 1341.17 568.90 1343.34 572.74 C 1345.03 578.34 1354.61 577.74 1355.75 572.11 C 1357.68 567.52 1353.04 562.33 1348.31 563.32 M 943.22 590.43 C 937.57 591.19 936.44 599.27 940.76 602.33 C 944.63 605.49 951.36 602.65 951.54 597.55 C 952.14 593.07 947.55 589.13 943.22 590.43 M 999.23 590.29 C 995.63 590.39 991.43 592.90 992.10 597.03 C 991.57 602.47 999.24 605.90 1003.07 602.10 C 1007.78 598.72 1005.10 590.13 999.23 590.29 M 1050.34 590.50 C 1045.48 591.88 1044.86 598.70 1047.90 602.08 C 1051.48 605.02 1057.86 603.75 1059.14 599.03 C 1061.11 593.92 1055.37 588.65 1050.34 590.50 M 1104.38 590.49 C 1099.40 591.97 1098.24 599.51 1102.55 602.39 C 1105.52 604.97 1110.34 603.51 1112.31 600.36 C 1114.26 598.00 1113.32 594.56 1111.67 592.32 C 1109.81 590.46 1106.88 589.84 1104.38 590.49 M 1158.34 590.47 C 1153.25 591.76 1152.23 599.69 1156.59 602.44 C 1161.15 606.38 1169.34 600.71 1166.92 595.05 C 1166.21 591.20 1161.85 589.40 1158.34 590.47 M 1212.44 590.44 C 1207.62 591.67 1205.87 598.98 1210.10 601.92 C 1213.72 605.65 1220.50 602.98 1221.14 597.98 C 1222.23 593.16 1216.90 589.16 1212.44 590.44 M 1266.28 590.44 C 1262.34 591.63 1260.25 596.98 1262.65 600.44 C 1264.74 604.67 1271.40 604.81 1273.85 600.83 C 1278.03 596.02 1272.14 588.29 1266.28 590.44 M 1320.35 590.43 C 1315.66 591.68 1314.03 598.21 1317.49 601.58 C 1320.46 605.24 1326.81 603.80 1328.58 599.63 C 1328.94 597.67 1328.93 595.60 1328.39 593.69 C 1326.95 590.81 1323.34 589.64 1320.35 590.43 M 1374.38 590.46 C 1367.24 591.88 1368.67 603.95 1375.97 603.61 C 1381.81 604.26 1385.03 596.73 1381.61 592.44 C 1379.67 590.76 1376.91 589.62 1374.38 590.46 M 1023.39 617.52 C 1018.13 618.95 1017.49 627.31 1022.34 629.65 C 1026.07 632.24 1031.93 629.65 1032.34 625.05 C 1033.48 620.08 1028.04 615.74 1023.39 617.52 M 1077.27 617.47 C 1072.97 618.92 1071.23 625.09 1074.67 628.30 C 1077.77 632.39 1084.76 630.82 1086.08 625.94 C 1088.13 620.71 1082.33 615.58 1077.27 617.47 M 1131.27 617.49 C 1125.74 619.01 1125.47 628.30 1130.92 630.11 C 1135.74 632.59 1141.97 627.17 1139.95 622.03 C 1139.18 618.20 1134.80 616.30 1131.27 617.49 M 1185.28 617.46 C 1181.50 618.57 1179.46 623.28 1181.38 626.80 C 1183.46 631.75 1191.73 632.07 1193.59 626.74 C 1196.30 621.61 1190.74 615.34 1185.28 617.46 M 1239.26 617.43 C 1234.20 618.95 1233.25 626.54 1237.53 629.46 C 1241.55 632.67 1248.18 629.11 1248.23 624.09 C 1248.55 619.53 1243.53 615.95 1239.26 617.43 M 1293.36 617.43 C 1288.05 618.69 1287.09 626.50 1291.46 629.43 C 1294.62 631.65 1299.36 630.56 1301.34 627.32 C 1302.22 624.53 1302.49 620.99 1300.06 618.89 C 1298.35 617.03 1295.63 617.17 1293.36 617.43 M 1347.32 617.43 C 1342.03 618.66 1341.20 626.43 1345.37 629.42 C 1348.49 631.57 1353.49 630.60 1355.34 627.26 C 1356.06 624.55 1356.53 620.86 1353.99 618.96 C 1352.23 617.24 1349.62 616.81 1347.32 617.43 M 1401.32 617.46 C 1397.70 618.38 1395.43 622.58 1396.85 626.10 C 1398.00 630.43 1404.00 631.89 1407.42 629.34 C 1410.58 626.91 1410.68 621.78 1408.18 618.85 C 1406.41 617.01 1403.64 617.02 1401.32 617.46 M 1050.32 644.44 C 1045.10 645.99 1044.34 654.32 1049.27 656.71 C 1053.41 659.40 1059.59 655.86 1059.46 650.93 C 1059.79 646.25 1054.53 643.06 1050.32 644.44 M 1104.29 644.36 C 1099.94 645.80 1099.08 651.28 1101.01 654.95 C 1104.17 659.02 1111.61 658.07 1113.02 652.92 C 1114.98 647.85 1109.33 642.53 1104.29 644.36 M 1158.31 644.39 C 1153.43 645.88 1152.11 653.59 1156.52 656.34 C 1159.96 658.82 1165.96 657.32 1166.86 652.89 C 1169.15 647.78 1163.28 642.63 1158.31 644.39 M 1212.31 644.41 C 1208.88 645.43 1206.65 649.59 1208.16 652.98 C 1209.02 656.99 1214.33 658.77 1217.69 656.71 C 1222.05 654.95 1222.50 647.89 1218.54 645.45 C 1216.87 643.89 1214.38 644.04 1212.31 644.41 M 1266.36 644.40 C 1261.68 645.61 1260.04 652.14 1263.42 655.53 C 1266.61 659.31 1273.39 657.57 1274.79 652.96 C 1277.01 647.99 1271.31 642.57 1266.36 644.40 M 1320.28 644.37 C 1316.57 645.65 1314.32 650.21 1316.30 653.81 C 1318.26 658.57 1325.83 658.69 1328.30 654.35 C 1328.99 652.20 1329.06 649.78 1328.34 647.65 C 1326.85 644.79 1323.34 643.55 1320.28 644.37 M 1374.34 644.41 C 1369.96 645.26 1368.41 651.01 1370.55 654.57 C 1373.21 658.41 1379.90 658.53 1382.35 654.36 C 1383.03 651.60 1383.51 647.96 1381.04 645.93 C 1379.35 644.03 1376.62 644.11 1374.34 644.41 M 1428.15 644.36 C 1424.76 645.57 1422.51 649.56 1423.89 653.03 C 1425.41 658.79 1435.44 659.11 1436.63 652.98 C 1438.44 647.92 1433.30 642.44 1428.15 644.36 M 1131.38 671.44 C 1126.62 672.78 1125.15 679.87 1129.22 682.84 C 1132.42 686.17 1138.76 684.44 1139.93 679.99 C 1141.86 674.92 1136.52 669.55 1131.38 671.44 M 1185.32 671.46 C 1179.77 672.75 1179.25 681.36 1184.34 683.68 C 1189.12 686.95 1195.91 681.29 1193.96 675.97 C 1193.30 672.05 1188.80 670.42 1185.32 671.46 M 1239.33 671.42 C 1233.71 672.72 1233.27 681.23 1238.22 683.70 C 1243.10 686.89 1249.74 681.27 1248.01 675.91 C 1247.21 672.15 1242.78 670.45 1239.33 671.42 M 1293.30 671.41 C 1289.44 672.30 1287.36 677.32 1289.35 680.72 C 1290.88 684.34 1296.25 685.93 1299.30 683.21 C 1302.33 681.50 1302.21 677.55 1301.42 674.63 C 1300.00 671.58 1296.34 670.68 1293.30 671.41 M 1347.31 671.43 C 1341.67 672.56 1341.09 681.57 1346.22 683.80 C 1351.02 686.76 1357.52 681.31 1355.92 676.03 C 1355.18 672.17 1350.83 670.44 1347.31 671.43 M 1401.35 671.41 C 1399.65 671.66 1398.34 672.97 1397.45 674.34 C 1394.60 678.29 1398.21 684.50 1402.93 684.57 C 1407.82 685.02 1411.88 678.91 1409.27 674.67 C 1408.09 671.48 1404.32 670.75 1401.35 671.41 M 1158.33 698.45 C 1152.52 699.84 1152.39 709.26 1158.03 711.05 C 1163.27 713.64 1169.29 707.11 1166.75 702.02 C 1165.48 698.66 1161.57 697.49 1158.33 698.45 M 1212.29 698.40 C 1207.09 699.61 1206.15 707.66 1210.59 710.36 C 1214.30 713.14 1220.61 710.79 1221.14 706.04 C 1222.46 700.99 1216.99 696.83 1212.29 698.40 M 1266.25 698.37 C 1262.28 699.54 1260.17 704.89 1262.71 708.31 C 1264.61 712.29 1270.60 712.49 1273.37 709.35 C 1275.71 707.16 1275.51 703.54 1274.17 700.87 C 1272.32 698.49 1269.09 697.69 1266.25 698.37 M 1320.24 698.38 C 1318.17 699.14 1316.24 700.73 1315.88 703.03 C 1313.88 708.65 1321.67 714.02 1326.29 710.29 C 1329.21 708.50 1329.23 704.54 1328.39 701.62 C 1327.03 698.46 1323.28 697.78 1320.24 698.38 M 1374.24 698.38 C 1371.08 699.29 1368.92 702.86 1369.69 706.07 C 1370.30 711.07 1377.27 713.29 1380.87 709.88 C 1383.32 707.91 1383.00 704.40 1382.42 701.66 C 1380.97 698.62 1377.33 697.57 1374.24 698.38 M 1428.29 698.36 C 1422.60 699.66 1421.80 708.49 1427.23 710.73 C 1431.67 713.62 1437.93 708.96 1436.80 703.88 C 1436.78 699.63 1432.06 697.25 1428.29 698.36 M 1185.36 725.43 C 1180.86 726.67 1179.06 733.18 1182.62 736.37 C 1185.97 740.42 1193.46 738.24 1194.20 733.06 C 1195.46 728.12 1190.02 723.62 1185.36 725.43 M 1239.26 725.38 C 1233.93 726.87 1233.05 735.47 1238.24 737.70 C 1242.66 740.35 1249.09 736.17 1248.18 731.00 C 1248.05 726.61 1243.17 724.11 1239.26 725.38 M 1292.37 725.52 C 1290.74 726.50 1289.38 728.02 1288.96 729.91 C 1287.39 734.18 1291.48 739.01 1295.93 738.52 C 1300.91 738.29 1303.80 732.05 1300.98 728.01 C 1299.33 724.90 1295.36 724.85 1292.37 725.52 M 1347.23 725.34 C 1341.72 726.84 1340.94 735.53 1346.27 737.75 C 1349.75 739.88 1354.70 737.60 1355.70 733.74 C 1357.71 728.94 1352.08 723.03 1347.23 725.34 M 1401.23 725.42 C 1395.89 726.55 1394.77 734.97 1399.64 737.39 C 1403.48 740.53 1410.36 737.01 1409.86 732.02 C 1410.36 727.43 1405.57 723.75 1401.23 725.42 M 1211.37 752.55 C 1206.86 754.88 1206.32 762.63 1211.33 764.68 C 1216.04 767.68 1222.89 762.21 1220.94 756.90 C 1220.21 752.56 1215.07 751.06 1211.37 752.55 M 1265.37 752.50 C 1262.38 753.98 1260.85 757.91 1262.06 761.03 C 1262.96 764.70 1267.64 766.26 1270.94 764.98 C 1276.08 763.23 1276.46 754.67 1271.41 752.57 C 1269.47 751.93 1267.30 751.91 1265.37 752.50 M 1320.20 752.34 C 1315.17 753.75 1314.01 760.85 1318.17 763.88 C 1321.87 767.55 1329.57 764.47 1328.85 759.00 C 1329.59 754.37 1324.45 750.55 1320.20 752.34 M 1373.40 752.58 C 1368.85 754.73 1368.00 761.79 1372.62 764.34 C 1376.92 767.74 1384.07 763.30 1383.04 757.93 C 1382.75 753.37 1377.41 750.58 1373.40 752.58 M 1427.38 752.52 C 1425.08 753.85 1423.10 756.23 1423.53 759.05 C 1423.52 763.23 1427.86 766.04 1431.76 765.49 C 1434.67 764.25 1437.24 761.26 1436.82 757.91 C 1436.85 753.37 1431.26 750.59 1427.38 752.52 M 1185.32 779.36 C 1181.78 780.36 1179.79 784.57 1181.19 787.97 C 1182.39 791.76 1187.21 793.66 1190.68 791.64 C 1195.13 789.47 1195.37 782.14 1190.98 779.82 C 1189.26 778.86 1187.16 779.01 1185.32 779.36 M 1238.35 779.54 C 1233.69 781.83 1233.44 789.43 1238.36 791.59 C 1243.52 794.88 1250.37 788.40 1247.74 783.01 C 1246.36 779.19 1241.82 778.43 1238.35 779.54 M 1293.26 779.32 C 1289.47 780.34 1287.28 785.35 1289.38 788.75 C 1291.25 792.80 1297.42 793.72 1300.35 790.32 C 1302.41 788.34 1301.96 785.09 1301.44 782.57 C 1299.96 779.52 1296.35 778.61 1293.26 779.32 M 1347.27 779.38 C 1341.59 780.62 1340.96 789.53 1346.27 791.70 C 1351.21 794.71 1357.97 788.46 1355.64 783.30 C 1354.60 779.77 1350.59 778.34 1347.27 779.38 M 1400.41 779.51 C 1398.55 780.21 1397.40 781.98 1396.69 783.74 C 1395.41 788.12 1399.32 793.15 1404.00 792.41 C 1408.88 792.07 1411.64 785.97 1408.96 781.99 C 1407.32 778.89 1403.39 778.64 1400.41 779.51 M 1455.23 779.35 C 1452.34 780.20 1449.96 783.11 1450.47 786.22 C 1450.60 790.70 1455.90 793.70 1459.89 791.85 C 1464.49 790.32 1465.23 783.32 1461.64 780.38 C 1459.91 778.80 1457.34 779.08 1455.23 779.35 M 1320.24 806.32 C 1316.62 807.25 1314.52 811.52 1316.03 814.95 C 1317.20 819.60 1324.16 820.80 1327.19 817.28 C 1329.41 815.41 1328.96 812.13 1328.47 809.60 C 1327.11 806.65 1323.21 805.16 1320.24 806.32 M 1373.36 806.54 C 1368.88 808.39 1368.14 815.15 1372.17 817.90 C 1376.37 821.83 1384.04 817.61 1383.03 811.97 C 1382.83 807.40 1377.33 804.53 1373.36 806.54 M 1427.34 806.51 C 1423.15 808.23 1422.16 814.48 1425.41 817.53 C 1427.69 819.23 1431.07 820.05 1433.66 818.48 C 1437.37 816.50 1437.96 810.78 1435.18 807.80 C 1433.10 805.80 1429.93 805.88 1427.34 806.51 M 1400.40 833.43 C 1396.30 835.29 1395.00 841.37 1398.62 844.38 C 1402.23 848.66 1410.17 845.61 1409.89 839.98 C 1410.67 834.93 1404.70 831.38 1400.40 833.43 M 1454.36 833.49 C 1449.61 835.52 1449.00 842.82 1453.64 845.29 C 1457.58 847.98 1464.27 845.13 1463.85 840.03 C 1464.74 835.09 1458.61 831.06 1454.36 833.49 M 1427.27 860.45 C 1424.24 861.87 1422.59 865.82 1423.95 868.94 C 1424.97 872.57 1429.61 874.34 1432.92 872.74 C 1436.63 871.41 1437.52 866.73 1436.48 863.32 C 1434.56 860.40 1430.51 858.86 1427.27 860.45 M 1454.34 887.44 C 1449.12 889.24 1449.38 897.61 1454.40 899.57 C 1458.73 902.03 1464.64 897.90 1463.85 892.99 C 1463.90 888.36 1458.32 885.33 1454.34 887.44 Z" />
<path fill="#aee0e9" stroke="#aee0e9" stroke-width="0.09375" opacity="1.00" d=" M 788.68 894.66 C 790.29 891.25 794.75 891.26 797.47 893.29 C 803.22 896.67 809.05 899.93 814.78 903.36 C 817.20 904.40 819.52 906.82 818.54 909.67 C 816.43 915.15 812.82 919.88 810.04 925.02 C 803.75 936.35 797.06 947.46 790.71 958.76 C 785.97 966.26 782.17 974.34 777.12 981.64 C 770.35 971.81 764.69 960.63 754.74 953.55 C 765.84 933.80 777.44 914.33 788.68 894.66 Z" />
<path fill="#aee0e9" stroke="#aee0e9" stroke-width="0.09375" opacity="1.00" d=" M 690.28 996.84 C 690.53 997.80 690.81 998.77 691.11 999.75 C 692.57 999.83 694.03 999.91 695.51 1000.01 C 694.36 1006.92 693.72 1014.00 694.45 1020.99 C 695.76 1023.13 697.79 1024.71 699.64 1026.38 C 699.24 1026.48 698.44 1026.69 698.04 1026.80 C 693.62 1026.03 689.42 1024.30 684.98 1023.58 C 686.56 1014.63 688.58 1005.77 690.28 996.84 Z" />
<path fill="#aee0e9" stroke="#aee0e9" stroke-width="0.09375" opacity="1.00" d=" M 707.86 1044.02 C 708.04 1040.08 707.05 1035.92 708.72 1032.20 C 715.98 1035.70 723.92 1037.46 731.81 1038.85 C 731.33 1051.54 731.71 1064.24 731.59 1076.94 C 731.56 1158.29 731.64 1239.65 731.56 1321.00 C 724.24 1310.93 718.40 1299.87 711.36 1289.61 C 709.85 1287.27 707.81 1284.95 707.88 1282.01 C 707.76 1231.35 708.02 1180.68 707.72 1130.04 C 699.53 1138.10 691.46 1146.33 682.94 1154.02 C 674.92 1166.46 666.79 1179.53 664.47 1194.40 C 661.15 1212.42 662.91 1231.37 669.65 1248.42 C 670.80 1251.57 672.82 1254.45 673.20 1257.87 C 667.77 1257.41 662.33 1256.82 656.98 1255.84 C 654.99 1255.27 652.22 1254.98 651.57 1252.65 C 645.27 1234.21 641.90 1214.53 643.67 1195.03 C 645.75 1174.01 654.09 1153.19 669.20 1138.14 C 678.99 1127.31 691.11 1118.30 698.21 1105.27 C 702.09 1098.18 705.78 1090.81 707.67 1082.93 C 708.05 1069.97 707.67 1056.98 707.86 1044.02 Z" />
</g>
<g id="#000000ff">
<path fill="#000000" stroke="#000000" stroke-width="0.09375" opacity="1.00" d=" M 702.50 434.16 C 709.65 435.89 716.68 438.10 723.71 440.29 C 725.97 441.02 728.23 441.76 730.48 442.54 C 772.64 456.94 812.89 479.73 842.54 513.49 C 862.35 535.86 876.94 562.58 886.28 590.90 C 887.77 595.48 889.06 600.12 890.46 604.73 L 890.70 605.39 C 906.36 609.30 921.95 613.54 937.35 618.38 C 933.57 620.95 929.74 623.46 925.83 625.84 C 925.45 627.47 925.22 629.14 924.62 630.72 C 922.64 633.98 919.15 635.84 916.64 638.62 C 914.47 640.89 912.70 643.48 910.72 645.90 C 901.59 651.81 896.67 662.32 893.63 672.41 C 892.08 677.07 892.84 682.19 895.85 686.10 C 899.42 691.71 903.76 696.78 907.98 701.91 C 908.46 701.14 909.41 699.59 909.89 698.82 C 904.04 689.71 903.31 678.01 906.63 667.86 C 910.92 654.53 919.94 643.41 929.35 633.31 C 933.63 628.53 938.44 624.24 943.57 620.38 C 950.77 622.52 957.83 625.08 964.93 627.51 C 967.96 628.62 970.99 629.72 974.03 630.83 C 985.80 635.30 997.49 639.98 1008.96 645.16 C 1015.07 648.10 1021.51 650.52 1027.25 654.15 C 1021.88 658.04 1016.63 663.13 1015.39 669.93 C 1013.61 678.06 1019.38 686.54 1027.02 689.12 C 1031.61 690.78 1037.68 688.06 1038.43 682.97 C 1039.38 678.04 1035.18 672.78 1030.04 673.22 C 1027.68 672.96 1024.11 674.70 1025.48 677.54 C 1026.96 680.36 1030.48 679.64 1032.81 678.40 C 1031.45 679.79 1030.16 681.61 1028.06 681.82 C 1024.15 682.50 1020.57 678.82 1020.50 675.04 C 1020.27 670.71 1023.32 667.03 1026.72 664.73 C 1030.76 661.94 1035.74 661.14 1040.54 660.96 C 1045.42 662.98 1049.82 665.96 1054.43 668.51 C 1056.56 669.86 1059.15 670.77 1060.64 672.96 C 1066.40 685.13 1061.75 701.37 1049.83 707.98 C 1040.90 712.86 1030.24 711.02 1020.73 709.18 C 1006.65 703.35 992.57 697.44 978.64 691.26 C 980.96 682.68 979.52 672.43 972.85 666.10 C 968.28 662.01 962.21 659.95 956.22 659.12 C 955.16 661.00 954.08 662.87 953.00 664.73 C 966.88 664.36 979.25 679.48 975.21 693.01 C 972.32 702.80 963.76 710.43 953.99 713.00 C 944.83 715.42 935.01 714.44 926.20 711.15 C 925.02 713.21 923.83 715.26 922.63 717.32 C 887.72 777.80 852.77 838.26 817.87 898.74 C 816.97 900.36 816.07 902.01 814.78 903.36 C 809.05 899.93 803.22 896.67 797.47 893.29 C 828.03 840.45 858.58 787.61 889.03 734.71 C 884.37 738.94 879.07 742.31 873.96 745.90 C 861.78 762.51 851.79 780.64 839.29 797.03 C 828.78 811.11 815.82 823.24 801.73 833.67 C 785.52 845.78 765.50 852.80 745.19 852.43 C 752.80 844.93 760.46 837.49 768.01 829.92 C 769.78 828.01 772.23 826.46 772.77 823.73 C 776.92 810.76 785.23 799.80 792.61 788.55 C 796.65 782.13 802.43 776.09 802.68 768.06 C 803.66 761.34 799.50 755.53 798.34 749.14 C 796.34 738.86 790.95 729.74 787.44 719.97 C 783.71 709.33 780.92 698.40 777.57 687.64 C 775.47 681.41 772.89 674.86 767.56 670.68 C 763.75 667.69 758.72 667.04 754.02 667.12 C 739.29 667.02 724.63 670.17 709.91 668.85 C 698.30 667.96 688.62 655.44 692.02 644.01 C 693.09 639.71 696.70 635.26 694.31 630.77 C 692.16 627.64 688.23 625.26 688.59 620.93 C 687.91 616.90 691.09 614.26 693.72 611.84 C 692.59 610.48 690.76 610.44 689.29 609.73 C 688.30 607.97 688.30 605.89 688.07 603.95 C 685.36 601.50 681.06 600.04 680.51 595.93 C 679.36 589.61 686.30 585.28 685.37 579.01 C 685.08 576.18 682.53 574.42 680.06 573.58 C 676.01 572.08 671.91 570.12 669.21 566.62 C 665.98 562.53 665.65 556.16 668.91 552.00 C 671.33 548.75 674.59 546.28 677.54 543.54 C 682.67 538.98 687.13 533.74 691.56 528.51 C 693.03 526.67 694.59 524.76 695.05 522.38 C 691.63 521.69 688.02 521.06 685.01 519.26 C 688.70 519.50 692.42 520.09 696.11 519.41 C 690.79 516.92 684.01 517.61 678.95 514.14 C 684.35 516.26 690.54 517.17 696.12 515.16 C 698.93 514.02 698.56 510.48 699.10 508.03 C 699.13 503.81 701.12 499.80 700.36 495.57 C 690.16 494.12 680.09 489.53 673.39 481.53 C 668.76 476.08 666.53 468.37 668.62 461.40 C 670.47 455.23 674.31 449.27 680.11 446.18 C 684.81 443.64 691.38 445.12 694.04 449.91 C 695.47 444.05 698.59 438.72 702.50 434.16 M 683.95 455.91 C 682.27 462.83 686.87 471.93 694.61 472.24 C 692.66 465.60 692.04 458.53 693.54 451.73 C 689.97 449.48 684.75 451.79 683.95 455.91 M 937.84 691.08 C 944.61 693.32 952.98 689.07 954.43 681.92 C 955.37 677.73 952.64 673.58 948.91 671.84 C 945.20 678.24 941.49 684.65 937.84 691.08 Z" />
<path fill="#000000" stroke="#000000" stroke-width="0.09375" opacity="1.00" d=" M 928.05 766.82 C 934.86 764.72 942.65 763.46 949.31 766.72 C 957.40 770.85 963.99 777.33 969.86 784.15 C 980.42 796.79 988.31 811.39 995.50 826.14 C 1005.01 846.30 1012.92 867.15 1021.05 887.88 C 1035.24 925.93 1044.80 965.47 1057.51 1004.01 C 1064.76 1025.56 1074.18 1046.28 1082.41 1067.46 C 1085.80 1076.41 1089.00 1085.50 1090.81 1094.93 C 1093.70 1109.78 1095.89 1124.82 1096.15 1139.97 C 1096.11 1151.96 1094.95 1164.43 1089.26 1175.22 C 1086.25 1181.30 1081.02 1185.68 1075.82 1189.82 C 1073.25 1191.44 1070.06 1191.55 1067.15 1191.06 C 1022.55 1175.59 981.52 1151.92 940.00 1129.81 C 922.78 1120.49 904.96 1112.36 887.56 1103.41 C 850.74 1084.47 814.53 1063.90 775.51 1049.70 C 768.07 1047.08 760.68 1044.16 752.93 1042.57 C 745.95 1041.02 738.85 1040.09 731.81 1038.85 C 723.92 1037.46 715.98 1035.70 708.72 1032.20 C 705.44 1030.67 702.42 1028.66 699.64 1026.38 C 697.79 1024.71 695.76 1023.13 694.45 1020.99 C 693.72 1014.00 694.36 1006.92 695.51 1000.01 C 697.91 987.14 702.95 974.55 711.29 964.35 C 716.64 957.78 723.69 952.27 731.96 950.03 C 739.59 948.10 748.18 948.97 754.74 953.55 C 764.69 960.63 770.35 971.81 777.12 981.64 C 783.12 990.49 789.97 999.36 799.66 1004.38 C 808.37 1009.04 818.50 1009.12 828.06 1010.47 C 836.00 1011.41 843.57 1014.10 851.09 1016.70 C 873.08 1024.61 893.82 1035.52 915.44 1044.33 C 932.50 1051.25 950.57 1057.16 969.21 1056.44 C 970.68 1049.17 970.21 1041.63 968.18 1034.52 C 964.72 1021.57 957.37 1010.21 952.07 998.01 C 936.75 963.15 922.02 928.04 907.11 893.00 C 898.94 874.22 886.08 857.55 880.60 837.59 C 877.23 825.25 877.55 811.66 882.87 799.92 C 886.41 793.70 891.89 788.88 897.30 784.32 C 906.50 776.90 916.75 770.49 928.05 766.82 Z" />
<path fill="#000000" stroke="#000000" stroke-width="0.09375" opacity="1.00" d=" M 656.01 1585.81 C 665.99 1585.36 675.96 1584.65 685.95 1584.29 C 696.28 1583.97 706.63 1582.92 716.96 1583.83 C 780.99 1587.77 845.01 1591.64 909.04 1595.59 C 890.89 1703.03 872.16 1810.39 854.00 1917.83 C 844.03 1918.64 834.01 1917.88 824.02 1918.17 C 791.33 1918.15 758.65 1918.09 725.96 1918.16 C 708.75 1917.97 691.52 1918.49 674.32 1917.86 C 656.32 1807.64 638.33 1697.42 620.29 1587.20 C 626.20 1586.82 632.12 1586.47 638.04 1586.33 C 644.03 1586.92 650.02 1586.09 656.01 1585.81 Z" />
</g>
<g id="#83c1daff">
<path fill="#83c1da" stroke="#83c1da" stroke-width="0.09375" opacity="1.00" d=" M 817.87 898.74 C 852.77 838.26 887.72 777.80 922.63 717.32 C 929.97 724.35 938.54 730.03 945.75 737.20 C 950.93 743.35 957.72 747.82 963.19 753.70 C 969.08 759.84 975.05 765.92 980.44 772.52 C 987.48 780.48 990.44 791.00 993.10 801.06 C 995.36 809.22 995.70 817.73 995.50 826.14 C 988.31 811.39 980.42 796.79 969.86 784.15 C 963.99 777.33 957.40 770.85 949.31 766.72 C 942.65 763.46 934.86 764.72 928.05 766.82 C 916.75 770.49 906.50 776.90 897.30 784.32 C 891.89 788.88 886.41 793.70 882.87 799.92 C 877.55 811.66 877.23 825.25 880.60 837.59 C 886.08 857.55 898.94 874.22 907.11 893.00 C 922.02 928.04 936.75 963.15 952.07 998.01 C 957.37 1010.21 964.72 1021.57 968.18 1034.52 C 970.21 1041.63 970.68 1049.17 969.21 1056.44 C 950.57 1057.16 932.50 1051.25 915.44 1044.33 C 893.82 1035.52 873.08 1024.61 851.09 1016.70 C 843.57 1014.10 836.00 1011.41 828.06 1010.47 C 818.50 1009.12 808.37 1009.04 799.66 1004.38 C 789.97 999.36 783.12 990.49 777.12 981.64 C 782.17 974.34 785.97 966.26 790.71 958.76 C 797.06 947.46 803.75 936.35 810.04 925.02 C 812.82 919.88 816.43 915.15 818.54 909.67 C 819.52 906.82 817.20 904.40 814.78 903.36 C 816.07 902.01 816.97 900.36 817.87 898.74 Z" />
<path fill="#83c1da" stroke="#83c1da" stroke-width="0.09375" opacity="1.00" d=" M 873.96 745.90 C 879.07 742.31 884.37 738.94 889.03 734.71 C 858.58 787.61 828.03 840.45 797.47 893.29 C 794.75 891.26 790.29 891.25 788.68 894.66 C 777.44 914.33 765.84 933.80 754.74 953.55 C 748.18 948.97 739.59 948.10 731.96 950.03 C 723.69 952.27 716.64 957.78 711.29 964.35 C 702.95 974.55 697.91 987.14 695.51 1000.01 C 694.03 999.91 692.57 999.83 691.11 999.75 C 690.81 998.77 690.53 997.80 690.28 996.84 C 688.68 985.39 684.41 974.59 681.40 963.48 C 678.93 954.26 677.50 944.45 679.63 935.01 C 682.22 921.67 689.99 909.92 699.52 900.48 C 702.15 897.46 705.65 895.19 707.60 891.62 C 713.61 881.63 721.88 873.30 730.09 865.15 C 735.35 861.18 740.02 856.51 745.19 852.43 C 765.50 852.80 785.52 845.78 801.73 833.67 C 815.82 823.24 828.78 811.11 839.29 797.03 C 851.79 780.64 861.78 762.51 873.96 745.90 Z" />
<path fill="#83c1da" stroke="#83c1da" stroke-width="0.09375" opacity="1.00" d=" M 583.31 1108.32 C 610.31 1072.96 645.01 1043.31 684.98 1023.58 C 689.42 1024.30 693.62 1026.03 698.04 1026.80 C 698.44 1026.69 699.24 1026.48 699.64 1026.38 C 702.42 1028.66 705.44 1030.67 708.72 1032.20 C 707.05 1035.92 708.04 1040.08 707.86 1044.02 C 707.67 1056.98 708.05 1069.97 707.67 1082.93 C 705.78 1090.81 702.09 1098.18 698.21 1105.27 C 691.11 1118.30 678.99 1127.31 669.20 1138.14 C 654.09 1153.19 645.75 1174.01 643.67 1195.03 C 641.90 1214.53 645.27 1234.21 651.57 1252.65 C 652.22 1254.98 654.99 1255.27 656.98 1255.84 C 662.33 1256.82 667.77 1257.41 673.20 1257.87 C 672.82 1254.45 670.80 1251.57 669.65 1248.42 C 662.91 1231.37 661.15 1212.42 664.47 1194.40 C 666.79 1179.53 674.92 1166.46 682.94 1154.02 C 691.46 1146.33 699.53 1138.10 707.72 1130.04 C 708.02 1180.68 707.76 1231.35 707.88 1282.01 C 707.81 1284.95 709.85 1287.27 711.36 1289.61 C 718.40 1299.87 724.24 1310.93 731.56 1321.00 C 731.64 1239.65 731.56 1158.29 731.59 1076.94 C 731.71 1064.24 731.33 1051.54 731.81 1038.85 C 738.85 1040.09 745.95 1041.02 752.93 1042.57 C 760.68 1044.16 768.07 1047.08 775.51 1049.70 C 814.53 1063.90 850.74 1084.47 887.56 1103.41 C 904.96 1112.36 922.78 1120.49 940.00 1129.81 C 943.18 1141.72 950.82 1151.92 958.66 1161.21 C 965.90 1176.08 974.88 1190.03 984.66 1203.35 C 996.65 1220.32 1009.39 1237.06 1017.66 1256.27 C 1027.03 1276.70 1030.35 1299.67 1028.24 1321.98 C 1026.98 1333.42 1023.22 1344.40 1018.95 1355.02 C 1015.17 1364.35 1009.03 1372.42 1004.20 1381.20 C 999.99 1388.22 998.29 1396.29 995.71 1403.97 C 991.05 1419.90 985.13 1435.52 982.07 1451.87 C 979.11 1486.36 976.21 1520.85 973.52 1555.36 C 973.18 1564.09 975.84 1573.22 972.67 1581.68 C 968.96 1588.50 962.74 1595.54 954.34 1595.49 C 947.21 1596.01 940.14 1598.08 932.96 1597.15 C 925.01 1596.28 917.00 1596.25 909.04 1595.59 C 845.01 1591.64 780.99 1587.77 716.96 1583.83 C 706.63 1582.92 696.28 1583.97 685.95 1584.29 C 675.96 1584.65 665.99 1585.36 656.01 1585.81 C 650.02 1586.09 644.03 1586.92 638.04 1586.33 C 632.12 1586.47 626.20 1586.82 620.29 1587.20 C 596.17 1587.94 571.73 1588.41 548.03 1583.14 C 528.93 1578.84 510.72 1570.59 494.98 1558.93 C 481.71 1549.45 470.16 1537.85 459.14 1525.89 C 452.83 1518.43 446.18 1511.21 440.57 1503.20 C 444.24 1490.90 447.96 1478.62 451.33 1466.24 C 471.76 1381.16 490.48 1295.08 523.92 1213.90 C 539.51 1176.58 558.50 1140.39 583.31 1108.32 Z" />
</g>
</svg>
